<?xml version="1.0" encoding="UTF-8"?>
<svg version="1.1" viewBox="0 0 971 1066" xmlns="http://www.w3.org/2000/svg" xmlns:cc="http://creativecommons.org/ns#" xmlns:dc="http://purl.org/dc/elements/1.1/" xmlns:rdf="http://www.w3.org/1999/02/22-rdf-syntax-ns#">
 <metadata>
  <rdf:RDF>
   <cc:Work rdf:about="">
    <dc:format>image/svg+xml</dc:format>
    <dc:type rdf:resource="http://purl.org/dc/dcmitype/StillImage"/>
   </cc:Work>
  </rdf:RDF>
 </metadata>
 <g id="background">
  <g id="plant-diagram" transform="matrix(.927 0 0 .987 35.1 8.06)">
   <ellipse cx="200" cy="711" rx="10.5" ry="4.7" fill="#b74c1a"/>
   <ellipse cx="507" cy="1e3" rx="266" ry="64.6" fill-opacity=".17"/>
   <path transform="translate(-25.4,-1.4)" d="m483 891c126-15.7 265 6.4 310 50 35.2 33.6 6.4 70.1-71.6 92.7-40.5-27.4-80.6-48.9-156-64.2 1.16-0.58-82.7-78.6-82.7-78.6z" fill="#dd4a10"/>
   <path transform="translate(-25.4,-1.4)" d="m567 611c-41 0-82.7 1.46-123 4.51-186 14.1-282 56.6-214 95.2l354-10.8 213 42.2c120-18.8 167-51.8 116-81.2-52.9-30.1-199-49.7-346-49.9z" fill="#9b350e"/>
   <g fill="#a54727">
    <path transform="translate(-25.4,-1.4)" d="m234 730-6.41 1 98.1 250 12.5 16.9c-26.2-89.7-63.7-179-104-267z"/>
    <path transform="translate(-25.4,-1.4)" d="m338 998c-45.7-43.3 19.1-91.4 145-107 0 0 83.5 78.2 82.7 78.6-85.2-1.16-154 7.94-228 28.6z"/>
    <path transform="translate(-25.4,-1.4)" d="m242 752c-9-4.37-20.7-13.1-25.9-21.8-7.24-11.5-12.5-22.8-12.2-45.5l22.1 26.4"/>
   </g>
   <path transform="translate(-25.4,-1.4)" d="m566 954c-65.5-86.6-30.9-182-0.88-242 76 8.73 148 23.6 213 51.6l-78 243c-47.1-9.62-98.6-24.5-134-53z" fill="#5b341e"/>
   <path transform="translate(-25.4,-1.4)" d="m565 712 0.88 242c-60.8 17.6-132 25.6-205 25.3l-99.2-244c93.1-15 193-23.6 303-23.1z" fill="#663a21"/>
   <path transform="translate(-25.4,-1.4)" d="m341 744-8.74 28.1 45.1 13.1-7.86 16.7 13.7-18.2-40.8-13.5z" fill="#33b5e5"/>
   <path transform="translate(-25.4,-1.4)" d="m279 735c-52.6-32.2 11.7-68 150-83.3s306-5.39 391 23.2 59.7 66.8-58.6 88.8l-196-51.7z" fill="#7f4a2a"/>
   <path transform="translate(-25.4,-1.4)" d="m373 665 61.2-8.15 21 3.93-1.17 11.9-90.8 5.53" fill="#663a21"/>
   <ellipse cx="787" cy="725" rx="4.98" ry="2.43" fill="#fff" fill-opacity=".25"/>
   <path transform="translate(-25.4,-1.4)" d="m937 687c-0.58 21.8-16.6 47.1-33.2 59.8l-100 238-82.7 49c26.2-96.9 26.5-194 78.6-291z" fill="#e66912"/>
   <path transform="translate(-25.4,-1.4)" d="m780 727-21.5 20.5 31.7-2 3.78-11.5" fill="#663a21"/>
   <path transform="translate(-25.4,-1.4)" d="m567 610c-41.3 0-83.5 1.46-125 4.51-188 14.1-285 57.2-217 96 3.78 5.23 31.4 0 44.2-3.35-61.7-34.9 15.4-72.9 185-85.7 169-12.7 357 5.38 418 40.4 46.9 26.6-0.87 54.3-106 72.5 7.85 5.67 19.8 7.27 32.3 8 121-19.1 169-52.4 117-82.1-53.5-30.4-201-50.3-349-50.3z" fill="#b74c1a"/>
   <path transform="translate(-25.4,-1.4)" d="m721 1033 66.9-249c16.6-9.32 19.5-30.3 11.4-41.6l-32.3-8-67.5 272-134-52.9v15.3z" fill="#a54e27"/>
   <path transform="translate(-25.4,-1.4)" d="m621 818 6.69-23.3 23.3-5.82 11.6-5.82-8.73 8-18.3 5.82z" fill-opacity=".2"/>
   <path transform="translate(-25.4,-1.4)" d="m338 998-95.8-246c-16.3-17.5-16.9-28.4-16-41l44.2-3.35 90.5 272 205-25.3v15.3z" fill="#b5613c"/>
   <path d="m516 701-16.9-8.1-24.7 6.3 14 7" fill="#663a21"/>
   <ellipse cx="573" cy="665" rx="4.98" ry="2.43" fill="#fff" fill-opacity=".25"/>
   <path transform="translate(-25.4,-1.4)" d="m736 677-28.5 12.5 46.3 1.17 2.91-8.88z" fill="#663a21"/>
   <g fill="#6f3b1f">
    <path transform="translate(-25.4,-1.4)" d="m432 693-87.6-4.8-18.3 12.2 92.6-0.73z"/>
    <path transform="translate(-25.4,-1.4)" d="m502 659-23.3 14.7 33.8 0.73 3.5-8"/>
    <path transform="translate(-25.4,-1.4)" d="m731 725-78.6-16.1 24.5-5.14 30-0.44 39.6 18.3"/>
   </g>
   <path transform="translate(-25.4,-1.4)" d="m702 742 12.5-3.06 12.5 7.86" fill="#663a21"/>
   <path transform="translate(-25.4,-1.4)" d="m668 664-16.3 12.5 30.2-2.94" fill="#6f3b1f"/>
   <g fill="#fff" fill-opacity=".25">
    <ellipse cx="291" cy="717" rx="8.35" ry="4.07"/>
    <ellipse cx="274" cy="703" rx="4.98" ry="2.43"/>
    <ellipse cx="454" cy="707" rx="8.35" ry="4.07" opacity=".72"/>
    <ellipse cx="411" cy="677" rx="8.35" ry="4.07"/>
    <ellipse cx="624" cy="692" rx="8.35" ry="4.07"/>
   </g>
   <path transform="translate(-25.4,-1.4)" d="m795 691-29.1 9.66 44.5 10.9 10.5-17.3" fill="#6f3b1f"/>
   <g fill="#fff" fill-opacity=".25">
    <ellipse cx="792" cy="692" rx="8.35" ry="4.07"/>
    <ellipse cx="710" cy="734" rx="8.35" ry="4.07"/>
    <ellipse cx="410" cy="712" rx="4.98" ry="2.43"/>
    <ellipse cx="476" cy="686" rx="4.98" ry="2.43"/>
    <ellipse cx="386" cy="674" rx="4.98" ry="2.43"/>
    <ellipse cx="691" cy="668" rx="4.98" ry="2.43"/>
    <ellipse cx="810" cy="706" rx="4.98" ry="2.43"/>
    <ellipse cx="612" cy="707" rx="4.98" ry="2.43"/>
    <ellipse cx="656" cy="693" rx="8.35" ry="4.07"/>
    <ellipse cx="685" cy="728" rx="4.98" ry="2.43"/>
    <ellipse cx="316" cy="709" rx="4.98" ry="2.43"/>
   </g>
   <path transform="translate(-25.4,-1.4)" d="m376 706-28.8 13.1 37.2-6 0.88-5.09" fill="#33b5e5"/>
   <ellipse cx="486" cy="653" rx="7.6" ry="3.7" fill="#fff" fill-opacity=".25"/>
   <g fill-opacity=".2">
    <path transform="translate(-25.4,-1.4)" d="m443 819-15.4 15.9-34.1 5.67 39.3-2.47z"/>
    <path transform="translate(-25.4,-1.4)" d="m353 883 43.7 6.25 13.1-9.45 30.6 21.1-29.1-13.5-12.2 6.55-45.1-8.29z"/>
    <path transform="translate(-25.4,-1.4)" d="m456 941-5.24 12.8 19.8-18.2"/>
    <path transform="translate(-25.4,-1.4)" d="m609 869 8.74 10.6 9.6 0.29 24.7 16.4-19.8-17.2-9.32-2.19z"/>
    <path transform="translate(-25.4,-1.4)" d="m625 933 16.9 0.44 16 6.11 6.4-6.11-2.91 9-16.5-5.36z"/>
    <path transform="translate(-25.4,-1.4)" d="m420 900 18.3 3.63 20.4-2.18-20.4 4.37z"/>
    <path transform="translate(-25.4,-1.4)" d="m352 847 29.1-5.39 30.6 3.64-27.6-0.43z"/>
    <path transform="translate(-25.4,-1.4)" d="m386 795 21-9-13.1 11.9z"/>
    <path transform="translate(-25.4,-1.4)" d="m615 752 16 7.28 30 0.43-30.6-4.36z"/>
    <path transform="translate(-25.4,-1.4)" d="m651 888 9.6 9.89 23.9 2.48-19.5-5.39z"/>
    <path transform="translate(-25.4,-1.4)" d="m627 954 11.6-10.9 17.5 2.62-11.6 0.73z"/>
    <path transform="translate(-25.4,-1.4)" d="m507 867 20.4 0.29 14.6 11.4-11.1-13.8z"/>
    <path transform="translate(-25.4,-1.4)" d="m523 817-26.2 13.5 18-5.53 17.5-1.45-8.74-5.39z"/>
   </g>
   <path transform="translate(-25.4,-1.4)" d="m834 911s-14.6 39-30.6 72.9l-82.7 49 21.8-81.9z" fill="#dd4a10"/>
   <path transform="translate(-25.4,-1.4)" d="m904 746s-23.9 56.2-39.9 90.1l-102 43.2 25.6-95.3z" fill="#dd4a10"/>
  </g>
  <path transform="translate(-25.4 -1.4)" d="m333 586a31.1 31.1 0 0 1 10.2 1.93v-1.93a53.4 53.4 0 0 1 53.5-53.4 52.8 52.8 0 0 1 23.3 5.33 82.3 82.3 0 0 1 79.8-62.3c45.5 0 82.3 36.7 82.3 81.8v0.12c0.25 0 0.61-0.12 1.1-0.12a41 41 0 0 1 0 81.9h-250a26.7 26.7 0 1 1 0-53.4" fill="#3bb84e"/>
  <path transform="translate(-25.4 -1.4)" d="m774 344v2.06c0 1.45 0 3.39-0.12 5.81a128 128 0 0 1-3 20.1c-1.21 4-2.3 8.47-4.12 13.1-0.73 2.18-1.95 4.6-2.92 7a63.7 63.7 0 0 1-3.52 7.14 111 111 0 0 1-9.22 14.4c-1.94 2.18-3.77 4.6-5.83 6.9l-3 3.27-3.28 3c-2.31 2.3-4.74 4-6.92 5.93-2.43 1.94-5.1 3.64-7.53 5.33s-5 3.27-7.52 4.72-5.22 2.78-7.77 4c-2.79 1.21-5.34 2.3-7.77 3.39-2.67 0.85-5.22 1.82-7.65 2.67s-4.85 1.45-7.28 2.17a33.4 33.4 0 0 1-3.4 1c-1.09 0.37-2.31 0.49-3.4 0.85-2.3 0.48-4.37 1-6.31 1.33s-3.88 0.61-5.71 1-3.52 0.6-5 0.73a30.5 30.5 0 0 1-4.37 0.48c-5.22 0.73-8.14 1-8.14 1-13.5 1.33-25.8-8.47-27.1-22a24.7 24.7 0 0 1 22.1-27.4 41.4 41.4 0 0 1 5.46 0l0.73 0.24s2.18 0.24 6.31 0.73c1 0 2.06 0.36 3.16 0.36s2.42 0.12 3.88 0.36c1.34 0 2.91 0.12 4.37 0.24h7.53a19 19 0 0 0 2.55-0.12 27.2 27.2 0 0 0 5.46-0.36 46.3 46.3 0 0 0 5.83-0.61c1.94-0.36 4.12-0.6 6.06-1s4-1.09 6.07-1.58 3.89-1.33 6.07-1.93c2-0.85 4-1.46 6-2.42a39.2 39.2 0 0 0 5.83-3.15l2.91-1.57 2.79-1.82c1.95-1.21 3.52-2.66 5.34-4a84.9 84.9 0 0 0 9.47-9.2c1.46-1.45 2.79-3.27 4.13-4.84 1.21-1.82 2.55-3.39 3.52-5.21a87.8 87.8 0 0 0 5.83-9.92 123 123 0 0 0 6.67-16.5c0.61-2.18 1-3.75 1.22-4.72a12.3 12.3 0 0 0 0.36-1.33v-0.27a5.59 5.59 0 0 1 6-5.32 5.51 5.51 0 0 1 5.34 5.93" fill="#456d6f"/>
  <path transform="translate(-25.4 -1.4)" d="m912 327a26.5 26.5 0 0 0-10.2 2.06v-2.06a53.6 53.6 0 0 0-76.8-48.2 82.2 82.2 0 0 0-162 19.7h-1.21a40.9 40.9 0 1 0 0 81.8h250a26.7 26.7 0 1 0 0-53.4" fill="#71c83f"/>
  <path transform="translate(-25.4 -1.4)" d="m784 530v1c0 1.21-0.12 2.66-0.12 3.87 0 2.18-0.24 4.6-0.36 7a111 111 0 0 1-2.31 14.8 101 101 0 0 1-11.6 29.6 106 106 0 0 1-19.7 24.2 131 131 0 0 1-21.6 16c-13.8 8.6-26.5 14-37.6 18.9s-21.1 9-29.4 13a117 117 0 0 0-20.3 11.9 55 55 0 0 0-11.4 10.9 37.8 37.8 0 0 0-5.47 10.2 74.2 74.2 0 0 0-3.88 23.4c0 2.91 0 5.69 0.12 8.23l-105-8.47c0.12-5 0.24-2.18 1.09-8.47a154 154 0 0 1 4.86-26.3 162 162 0 0 1 11.9-31.6 141 141 0 0 1 23.2-32.8 154 154 0 0 1 33-26c23.4-14 48-21.3 68.6-28.3 10.2-3.38 19.5-6.77 26.7-10.4a54.7 54.7 0 0 0 8.38-4.85 22.6 22.6 0 0 0 4.61-4 20.3 20.3 0 0 0 3-5.2 25.2 25.2 0 0 0 1.09-4.12 16.6 16.6 0 0 0 0.36-2.42l0.12-1v-0.24l0.25-0.6v-1.58l0.12-0.72v-3.64c0-1.45 0-2.78-0.12-4.11a31 31 0 0 0-1.95-6.78 31.8 31.8 0 0 0-5.09-6.78 53.8 53.8 0 0 0-9.47-7.38c-7.77-4.84-18.2-9.2-29.1-12.7a341 341 0 0 0-35.6-9.32c-12.5-2.66-25.2-4.84-38.1-7.14-25.7-4.35-51.7-8.35-77.7-14-12.7-2.78-25.6-5.81-38.2-9.8-12.9-4.24-25.2-9.08-37.4-15.9a105 105 0 0 1-17.7-12 94.7 94.7 0 0 1-9-8.23 91.4 91.4 0 0 1-6.31-7.38 89.6 89.6 0 0 1-6.19-9.32l-1.33-2.42c-0.49-0.85-1-1.94-1.46-2.78-0.49-1.09-0.61-1.58-1-2.3l-0.24-1-0.37-0.61v-0.12l-0.36-0.72a144 144 0 0 1-5.46-18 125 125 0 0 1-2.31-34.5 149 149 0 0 1 5.7-29.5 181 181 0 0 1 19.3-42.6 229 229 0 0 1 16.8-24.1c2.67-3.15 4.61-5.45 5.82-6.78 0.85-1 1.22-1.45 1.34-1.45a15.6 15.6 0 0 1 21.8-1.45l0.12 0.24a15.1 15.1 0 0 1 1.33 21.5s-1.82 2.3-4.85 6.78a228 228 0 0 0-12.5 21.7 161 161 0 0 0-12.4 35.5c-2.91 13.9-3.39 29.4 1.22 44.2a87.4 87.4 0 0 0 4.61 11v0.12h0.12v0.24l0.49 1c0.36 0.48 0.61 1.09 0.85 1.21l1.09 1.69a47.6 47.6 0 0 0 3 3.88c4.73 5 11.5 9.31 19.9 13.1a45.3 45.3 0 0 1 5.1 2.05 215 215 0 0 0 23.9 6.78c10.7 2.3 22 4 34 5.45 23.8 2.78 49.3 4.36 76 6.29 13.4 1.21 27.1 2.3 41 3.88s28.3 3.75 43 7 30.1 7.75 46 15.2a140 140 0 0 1 23.6 14.8 110 110 0 0 1 14.6 13.8 72.1 72.1 0 0 1 6.8 8.95 98.5 98.5 0 0 1 14 29 95.9 95.9 0 0 1 3.16 15.1c0.36 2.42 0.72 4.84 0.85 7.26a31.5 31.5 0 0 0 0.36 3.51v3.75l0.12 1.21v0.73" fill="#51898a"/>
  <path transform="translate(-25.4 -1.4)" d="m457 388-53.9 20.9a85.8 85.8 0 0 1-12.5-16.7l-1.33-2.42c-0.49-0.85-1-1.94-1.46-2.78-0.49-1.09-0.61-1.58-1-2.3l-0.24-1-0.37-0.61v-0.12l-0.36-0.72a167 167 0 0 1-5.46-18 125 125 0 0 1-2.31-34.5 149 149 0 0 1 5.7-29.5 181 181 0 0 1 19.3-42.6 249 249 0 0 1 16.8-24.1c2.67-3.15 4.73-5.45 5.82-6.78l23.3-2.66a15.1 15.1 0 0 1 1.33 21.5s-1.82 2.3-4.85 6.78c-3 4.84-7.65 12.1-12.5 21.7a161 161 0 0 0-12.4 35.5c-2.91 13.9-3.39 29.4 1.22 44.2a87.4 87.4 0 0 0 4.61 11l0.12 0.12v0.24l0.49 1c0.36 0.48 0.61 1.09 0.85 1.21l1.09 1.69a24.4 24.4 0 0 0 3.28 3.88c4.49 5 11.3 9.31 19.7 13.1a45.3 45.3 0 0 1 5.1 2.05" fill="#456d6f"/>
  <path transform="translate(-25.4 -1.4)" d="m712 236a31.1 31.1 0 0 0-11.5 2.3v-1a62.2 62.2 0 0 0-95.3-52.5 97.6 97.6 0 0 0-95.9-80 99.5 99.5 0 0 0-30.2 4.84 120 120 0 0 0-228-1 100 100 0 0 0-27.1-3.87 97.2 97.2 0 0 0-97.3 97.4 86.9 86.9 0 0 0 1.1 14.9 42.1 42.1 0 0 0-7.89-0.85 41.6 41.6 0 1 0 0 83.3h592a31.7 31.7 0 1 0 0-63.4" fill="#3bb84e"/>
  <path transform="translate(-25.4 -1.4)" d="m597 229a26.6 26.6 0 0 0-10.2 2.18v-2.18a53.6 53.6 0 0 0-76.8-48 82.2 82.2 0 0 0-162 19.7h-1.21a40.9 40.9 0 1 0 0 81.8h250a26.8 26.8 0 0 0 0-53.5" fill="#71c83f"/>
  <g fill="#b8db29">
   <path transform="translate(-25.4 -1.4)" d="m397 257a48.4 48.4 0 0 0-26.7 8.23 61.9 61.9 0 0 0 0.49-8.23c0-52-42.4-94.3-94.6-94.3s-94.7 42.2-94.7 94.3a91.8 91.8 0 0 0 8.86 39.9 32.3 32.3 0 1 0-23.4 54.5 25.5 25.5 0 0 0 3.15-0.13v0.13h227a47.2 47.2 0 1 0 0-94.4"/>
   <path transform="translate(-25.4 -1.4)" d="m834 360a22.6 22.6 0 0 0-13.5 4.24c0.12-1.46 0.12-2.79 0.12-4.24a47.7 47.7 0 0 0-95.4 0 46.9 46.9 0 0 0 4.5 20.2 15.5 15.5 0 0 0-11.8-5.2 16.3 16.3 0 1 0 0 32.7 3.5 3.5 0 0 0 1.58-0.25v0.25h114a23.8 23.8 0 1 0 0-47.7"/>
   <path transform="translate(-25.4 -1.4)" d="m544 628a21.9 21.9 0 0 0-13.4 4.24c0-1.45 0.12-2.79 0.12-4.24a47.7 47.7 0 0 0-95.4 0 48.7 48.7 0 0 0 4.37 20.2 15.8 15.8 0 0 0-11.9-5.21 16.3 16.3 0 0 0 0 32.6 8.74 8.74 0 0 0 1.82-0.12v0.12h114a23.8 23.8 0 1 0 0-47.6"/>
  </g>
  <path transform="translate(-25.4 -1.4)" d="m784 530v1c0 1.21-0.12 2.66-0.12 3.87 0 2.18-0.24 4.6-0.36 7a111 111 0 0 1-2.31 14.8 101 101 0 0 1-11.6 29.6 106 106 0 0 1-19.7 24.2 131 131 0 0 1-21.6 16c-13.8 8.6-26.5 14-37.6 18.9s-21.1 9-29.4 13a117 117 0 0 0-20.3 11.9 55 55 0 0 0-11.4 10.9 37.8 37.8 0 0 0-5.47 10.2 74.2 74.2 0 0 0-3.88 23.4c0 2.91 0.36 9.57 0.48 12.1l-56.6-15.4c-2.92-25.5 28.3-64.3 84.1-83.9 75.9-26.6 154-78.1 111-167a72.1 72.1 0 0 1 6.8 8.95 98.4 98.4 0 0 1 13.8 29 95.9 95.9 0 0 1 3.16 15.1c0.36 2.42 0.72 4.84 0.85 7.26a31.5 31.5 0 0 0 0.36 3.51v3.75l0.12 1.21v0.73" fill="#456d6f"/>
  <path d="m539 710-49.1 3.1c14.3 20.1 3 44.4 3 44.4s13.3-31.7 23.9 15.6c-20.8 10.5-41.6 29.7-63.4 36.2-6.4 2.1-14 4.9-20 7.3-7.4 2.6-13.9 5.3-19.8 9.4-2.8 1.4-5.4 3.1-7.9 5.1-1.6 2.4-4.3 4.3-6 6.4-3.8 3.2-6.5 7.4-7.8 12.2l0.299 1.4-0.299-1-2.8 0.5c-2.9 0.4-1.9-0.199-4.8 0.801-2 0.3-7.8 1.6-10.2 2-2 0.4-3.9 0.999-5.7 1.8-3.1 1.1-4.9 1.3-6.6 2.2-2.2 0.6-4.2 1.3-6.2 2.3-11.9 4.2-19.2 10.2-21.8 16.9 3.6-4.4 8.9-7.3 12.8-10.1 1.5-1 3-1.7 4.7-2.2 2.2-0.9 4.4-1.7 6.6-2.4 8.4-2.6 15.3-4.6 22.4-5.6 7.8-1.1 12.5-1.3 8.6-0.799 0.1 4-7.1 23.1-8.5 24.5-1.2 2-4.1 3.7-6.6 5.6-1.7 1.3-3.6 2.5-5.5 3.6 10.4-2.4 16.1-8.7 19.8-18 3.5-6.2 4.3-13.7 7-21.5 1.4-4.5 4-8.5 7.6-11.5 1.7-2.3 4.2-3.7 5.9-5.5 2.6-1.9 5.4-3.7 7.7-5.2 12.6-6.9 26-11 38.8-15 14.5-3.8 26.5-9.1 36.8-12.2 9.1-4.4 15-9.2 23.1-13.3 1.6 12.8 2.8 6.6-4.2 15-36 23.7-55.6 38.7-77.3 64.1-1.7 2.1-4.4 4.5-5.6 7.3-1 2.6-3 5.5-3.6 8.4-0.5 1.6-0.299 3-1.2 4.7 0.2 1.9-2.5 7.5-3.2 9.4-1 2-1.3 5.1-1.3 8.5-0.8 7.1-0.3 16-2.5 25.3 0.4 1.9-1.4 5-2.1 6.7-0.8 2.5-2.1 4.9-3.8 7-0.6 0.9-1.3 1.8-2.1 2.6-0.8 0.9-1.7 1.7-2.7 2.6-2.6 2.7-4.2 3.5-7.2 5.2 4.2-0.8 5.8-2.5 8.4-3.5 1.8-1.7 2.6-2.6 3.6-3.5 2-0.8 2.8-2.6 3.4-3.4 1.3-1.7 3-4.3 4.5-6.2 0.7-2.5 2.2-5.2 3-7.6 3.1-9.2 3.5-18.5 5.1-25.3 0.5 2.3 2 4.3 2.4 6.6 1.7 3 3.1 6.1 4.4 9.3 0.4 3 2 6 2.7 9.2l0.801 4.4c0.2 1.7-0.7 3.4-0.4 4.3-0.3 1.8 0 2.7-1 4.4-0.9 1.4-1.7 2.8-2.4 4.3-0.3 1.8-3 4.5-3.8 7 1.8-2.6 4.5-3.6 6-7 0.8-1.7 1.7-2.6 1.8-4.3-0.1-0.9 0.7-2.6 1.1-4.4-0.3-0.9 0.902-2.6 0.602-4.4-0.1-1.6 0.4-3.1 0.0996-5l-1.6-9.3c-1.5-3-3.4-6.4-3.9-9.5-2-5.8-2.6-10.7-3.8-16.9 0.9-13.6 3.9-16.2 11.2-24.5 3-1.4 0.7 2.4 1 4.6 0 9.9 5.3 13.9 10.7 17.3-3.9-5.5-6.4-8.1-7.4-11.9-1.2-7.2-0.2-9.6 0.9-14.8 5.2-6.8 14.9-17.6 20.6-22.3 1.6 0.1 3.2 0.7 4.4 1.6 8.7 6.4 12 11.2 11.3 20.3 7.3-5.7 1.5-23.8-5.9-27.2l-4 0.5c5.2-4.1 11.6-8.1 16.9-11.8 7.7-5.3 14.7-10.6 21-14.9 3.7-2.4 4.3 0.798 5.7 3.9 1.3 7.6 4.1 11.1 8.2 17.3 4.1 5.6 9.4 8.2 11.9 12.5 0 2.9-0.1 5.5-1.5 8.1-3.7 7.7-16.2 16.9-26 26.5-5.5 4.8-10.3 10-13.2 14.9-1.7 2-2.9 4.4-3.6 7-0.8 2.2-0.401 4-0.201 6 1.9 3.7 4 6.3 7.6 7.5-2.9-1.9-5.1-4.6-6.3-7.8-0.6-3.3 1.5-8 4.8-12.7 1.5-1.1 2.1-2.7 4.1-3.9 1.3-0.1 2.8 1.4 4.1 1.7 4.1 2 7 1.7 11.5 9.1 1.9 2.6 1.9 4.5 2.1 7.2 1.2-1.1 0.701-2.7 1.3-4.1 0-3.4 0.0996-5.2-1.4-8.3-4.4-7.5-7.1-7-11.6-9.3-0.8-0.1 1.5-3.6 5.1-6 10.8-9.8 23.3-18.5 28.8-27 0.6-1.6 1.2-3.2 1.9-4.8 3.5 3.9 8 7.7 12 12.3 2.3 2.4 3.9 5.7 6.6 8.3v0.201c4.8 6.4 7.8 12.7 8 19.3-0.4 9.4-8.5 18.6-15.9 26.1-11.6 11-20.4 21.3-19.3 28.6 0.2 2.6-0.3 4.3 1 6-0.5-1.7 0.3-3.5 0-6 0.3-2.9 1.4-5.6 3.1-7.9 3-5.7 10-12.2 17.9-19.9 7.9-7.6 17.8-16.7 19.1-27.2 0.6-3 0.301-4.7-0.199-7.9-0.4-2.5-2-4.6-3.8-7.4l-0.0996-0.799c1.2 0.1 2.4 0.5 3.5 1 3.1 0.4 6.1 0.999 9.1 1.8 7.2 1.3 15.2 3.1 24.3 4.8 4.2 0.8 9.2 2.1 13.6 2.9 0.7-0.2 0.9 0.199 1.9 0.199-3 5-3.3 10.1-5.2 15-3.9 7.1-10 16.6-15.3 25.9-1.5 2.1-2.7 4.5-3.7 7-1.1 2-2 4.1-2.5 6.4-0.6 6.7 2 12 5.9 13.9 2.9 1.8 9 2.7 9 2.7s-7.2-3.3-9.3-5.3c-2.2-3-3.2-6.8-2.9-10.5 1.3-5.5 4.4-9.7 7.6-14 6.1-9.5 14.2-18.7 18.2-25.5 3.2-3.1 2.6-6 4.1-9.2-0.3-1.5 2.1-3.9 5.5-3.3 3.1 1.4 7.5 3.3 10.6 4.9 2.7 1.4 5.7 3.1 6.6 6.2 2.7 2 3.3 5.2 3.5 7.5 0.6 2.4 3.9e-4 4.3 0.4 6.8-0.9 2.1-0.9 4.2-2 5.8-0.4 2-1.2 3.1-1.7 4.6-0.2 1.4-0.8 2.7-1.5 3.8 0.8-1.2 1.5-2.5 2.1-3.9 0.9-0.9 1.4-2.5 2.5-4.7 0.1-1.4 0.998-3.6 1.4-5.7 0.9-2.2 1.2-4.7 0.801-7.1-0.3-2.6-1.1-5.1-2.2-7.6-0.2-1.5-1.7-2.7-2.6-3.9-1.6-0.8-2.4-2.3-4.4-3.4-3.6-1.9-6.5-3.9-10.9-5.2-4.2-1.8-8.5-3.4-12.8-4.5-4.4-0.7-8.7-1.6-13-2.8-9.1-2.2-17.4-3.9-23.9-5.7-3.8-1-6.2-1.6-8.7-2.3-2.5-1.1-5.5-1.5-6.5-1.9-3.1-1.2-5.3-1.2-5.4-1.5-2-2.2-3.8-4.6-5.4-7.1-7.5-10-17.3-19.9-24.7-30.6-5.5-7.1-8.5-15-8.2-22.3 3.4 0.3 6.5 1.3 10.3 1.7 9.7 1.5 32.2 5.6 32.2 5.6 9.9 6.6 20.1 16.5 27.4 25.4 4.6 5.2 10.6 8.5 17.8 10.6 4 1.1 8 1.9 12 2.5 2.4 0.5 4.9 0.699 7.3 0.799 1.9 0.7 4 0.5 6 0.6 6.9 0.8 4.2 0.302 0-0.398-2-0.3-4.1 0.199-6.1-0.701-2.1 0.1-4.2-0.3-6.3-1-9.1-2.3-20.7-6.2-25.9-13.8-6.2-6.9-10.3-14.3-15.4-19.4-2.8-2.5-5.3-5.8-8.4-7.5 5.2 0.2 10 0.3 14.9 0.6 10 0.3 20.3 0.8 28.2 2.5 4.4 1 16.8 5.9 19 7.4 21.4 22.2 0.6-6.3 6.6-7.4 10.4-2.2 21.1-3.6 31.8-4 2.5-0.2 5.1-0.2 7.7-0.0996 4.9 0.1 9.7 0.8 14.5 2.1 1.6 0.9 2.7 1.6 4 2.2 1.1 1.1 1.3 2 2.6 2.8 0.8 0.5 1.3 1.3 1.3 2.1-0.1-0.6 0.899-1.2-0.201-2.2-0.6-1.3-1.6-2.3-2.8-3.1-1.3-0.8-2.4-1.8-3.5-2.8-4-2.5-8.8-2.9-14-3.4h-9.4c-11.4-0.3-24 1.2-32.8 2.2-8.7 1.5-41.4-0.00117-51.2-1.2-24 0.2-44.6-3-66.6-7.9 1.2-2 1.5-4.2 3.2-6 3.6-6 12.2-13.2 21.2-18.1 9e-5 -6.7e-4 -1e-4 -0.00128 0-0.00195 17.9-4.79 33.9 3.3 52.8 5.6-6.8-2-13.4-6.5-20.5-8.1 4.3-2.3 7.1-4.4 8.5-7.5-11 4.61-27.1 4-39.8 4.58 6.73-30.9 28.1-29.5 39.8-44l-56.6-15.3zm-110 244c-1.1 0.9-3.1 3.5-4.8 4.5-2 1.7-3.8 3.7-5.3 6 1.4-2.1 3.3-3.8 5.4-5.1 1.6-1.9 3.7-3.7 4.7-5.4z" fill="#dcdcdc"/>
 </g>
 <g id="timeline">
  <g id="soil" transform="translate(251,28)">
   <text id="moisture-adc" x="128.59375" y="735.6875" fill="#ffffff" font-size="32px">ADC</text>
   <g id="soil-badge">
    <circle id="soil-type-color" cx="179" cy="872" r="130" fill="#5b4f35"/>
    <g id="soil-title">
     <text id="soil-type-text" transform="translate(144,793)" fill="#ffffff" font-size="29px">DIRT</text>
    </g>
    <g id="soil-details" font-size="24px">
     <text id="soil-type" transform="translate(130,944)" fill="#ffffff">Soil Type</text>
     <g id="soil-icon" transform="matrix(.6 0 0 .6 115 823)">
      <path d="m101 59-96 11 96 11 96-11z" fill="#3d2111"/>
      <path d="m101 60v13l96-11v-13z"/>
      <path d="m5 49v13l96 11v-13z" fill="#222020"/>
      <path d="m101 38-96 11 96 11 96-11z" fill="#0e0e0e"/>
      <path d="m101 48v5l96-11v-5z" fill="#007634"/>
      <path d="m5 37v5l96 11v-5z" fill="#3d9919"/>
      <path d="m101 26-96 11 96 11 96-11z" fill="#8dbf49"/>
      <path d="m5 70v50l96 11v-50z" fill="#58280c"/>
      <path d="m101 81v50l96-11v-50z" fill="#3d2111"/>
      <path d="m59 34s-6-4-12-1c0 0 5-8 10-7 0 0-3-5-8-5 0 0 7-4 13 2 0 0 2-6-4-11 0 0 6 0.9 9 7 0 0 2-9 10-14 0 0-6 8-5 14 0 0 7-11 19-9 0 0-6 5-9 11 0 0 8-4 16 1 0 0-4 0.3-8 2 0 0 3 0.6 7 3 0 0-7 0-12 7z" fill="#3d9919"/>
      <path d="m59 34s-6-4-12-1c0 0 5-8 10-7 0 0-3-5-8-5 0 0 7-4 13 2 0 0 2-6-4-11 0 0 6 0.9 9 7 0 0 2-9 10-14 0 0-6 8-5 14 0 0 7-11 19-9 0 0-6 5-9 11 0 0 8-4 16 1 0 0-4 0.3-8 2 0 0 3 0.6 7 3 0 0-7 0-12 7z" fill="#3d9919"/>
      <path d="m64 34s-6-6-13-4c0 0 9-5 16 2 0 0-4-8-11-11 0 0 7 0.9 13 9 0 0-2-8-6-13 0 0 4 2 5 6 0 0 2-11 5-15 0 0-5 9-2 16 0 0 6-14 18-14 0 0-11 10-12 18 0 0 11-9 18-7 0 0-7 0.1-11 5 0 0 6-2 10 0.4 0 0-6 1-8 6z" fill="#007634"/>
      <path d="m69 39s-4-4-9-3c2-3 7-2 7-2-3-3-5-3-5-3s4-0.9 6 2c-0.8-3-0.7-4-0.7-4s2 4 3 4c0.2 0-2 5-2 5z" fill="#237812"/>
      <path d="m80 32s4-4 6-4c2 0.1 6 3 6 5 0.3 2 0.4 4-1 5-2 0.5-6 1-8-0.1-2-1-2-6-2-6z" fill="#9c6038"/>
      <path d="m68 38s2-7 4-8 4-2 8 1c3 3 3 3 3 5 0.2 2 0.7 3-2 4-7 2-14-0.1-13-2z" fill="#b67d56"/>
      <path d="m83 36c-0.2-2 0.3-2-3-5-4-3-6-2-8-1-1 0.6-2 3-3 5 0.4-0.7 4-6 6-5 3 0.8 5 4 5 7 0.4 2-12 3-12 0.4-0.1 0.2-0.1 0.4-0.1 0.4-0.8 2 6 4 13 2 3-0.8 2-2 2-4z" fill="#b67d56"/>
      <path d="m125 33s-5-3-10-0.8c0 0 4-6 8-6 0 0-2-4-6-4 0 0 6-4 11 2 0 0 2-4-4-9 0 0 5 0.7 7 6 0 0 1-8 8-11 0 0-4 6-4 11 0 0 5-9 15-7 0 0-5 4-7 9 0 0 6-3 13 1 0 0-3 0.2-6 2 0 0 3 0.4 6 3 0 0-5 0-9 6z" fill="#3d9919"/>
      <path d="m125 33s-5-3-10-0.8c0 0 4-6 8-6 0 0-2-4-6-4 0 0 6-4 11 2 0 0 2-4-4-9 0 0 5 0.7 7 6 0 0 1-8 8-11 0 0-4 6-4 11 0 0 5-9 15-7 0 0-5 4-7 9 0 0 6-3 13 1 0 0-3 0.2-6 2 0 0 3 0.4 6 3 0 0-5 0-9 6z" fill="#3d9919"/>
      <path d="m129 33s-5-5-10-3c0 0 7-4 13 1 0 0-3-7-9-8 0 0 6 0.7 10 7 0 0-2-6-4-11 0 0 3 2 4 5 0 0 1-8 4-12 0 0-4 7-2 13 0 0 4-12 14-11 0 0-9 8-10 14 0 0 8-7 14-5 0 0-5 0.1-8 4 0 0 5-1 8 0.3 0 0-5 1-6 5z" fill="#007634"/>
      <path d="m133 37s-3-3-7-2c2-2 6-1 6-1-2-2-4-2-4-2s3-0.7 5 1c-0.6-2-0.6-3-0.6-3l2 4c0.2 0-2 4-2 4z" fill="#237812"/>
      <path d="m142 32s3-3 4-3c1 0.1 5 3 5 4 0.3 2 0.3 3-1 4-1 0.4-5 1-6-0.1-2-1-2-5-2-5z" fill="#9c6038"/>
      <path d="m151 33c-0.2-1-2-3-3-4 0.4 0.5 1 2 2 2 0.9 0.9 0.6 3-0.4 4-1 0.3-4 0.9-4 0-0.6-0.9-1-2-2-3-0.2-0.4 0-1 0.4-2l-2 2s0.3 4 2 5c2 1 5 0.4 6 0.1 1-0.4 1-2 1-4z" fill="#9c6038"/>
      <path d="m132 36s2-5 4-6c2-0.8 3-2 6 1 3 2 2 2 2 4 0.1 2 0.6 3-2 3-5 2-11-0.1-10-2z" fill="#b67d56"/>
      <path d="m144 35c-0.1-2 0.2-2-2-4-3-3-4-2-6-1-0.9 0.5-2 2-3 4 0.3-0.5 3-4 5-4 2 0.6 4 4 4 5s-9 2-10 0.3c-0.1 0.2-0.1 0.3-0.1 0.3-0.7 2 5 4 10 2 2-0.6 2-2 2-3z" fill="#b67d56"/>
     </g>
    </g>
   </g>
  </g>
  <g id="timer" transform="translate(126 5.69)">
   <g id="timer-disabled" transform="translate(-148)" fill="#eb2c00">
    <path transform="translate(-25.4 -1.4)" d="m99 375a52 52 0 0 0 3.2 5.2 126 126 0 0 0 16.2 19 139 139 0 0 0 16.2 13.5c1.2 2.3-5.5 7.5-6.7 5.2-4.9-5-10-9.6-14.9-14.5-6-5.9-11.6-12.2-17.4-18.2a41.9 41.9 0 0 0-4.47-4.2c-1.39-2.7 6.53-8.7 7.92-6z"/>
    <path transform="translate(-25.4 -1.4)" d="m126 374a50.4 50.4 0 0 1-3.2 5.3 126 126 0 0 1-16.2 19 136 136 0 0 1-16.2 13.4c-1.21 2.3 5.51 7.5 6.72 5.2 4.9-5 10-9.6 14.9-14.4 6-5.9 11.6-12.2 17.5-18.2a42 42 0 0 1 4.4-4.2c1.4-2.7-6.5-8.8-7.9-6.1z"/>
   </g>
   <g id="timer-enabled" transform="translate(-148)" fill="#5fd35f" fill-rule="evenodd">
    <path transform="translate(-25.4 -1.4)" d="m142 379a47.9 47.9 0 0 1-9.9-8.8c-12.4 7.4-25.5 33.8-25.5 33.8-6.2-8.9-12.4-11.3-12.4-11.3a115 115 0 0 1-7.6 8.8c11.2 3.1 20.6 14.3 20.6 14.3 20.3-32.4 34.8-36.8 34.8-36.8z"/>
    <path transform="translate(-25.4 -1.4)" d="m144 379a48.2 48.2 0 0 1-9.8-8.7c-12.4 7.4-25.6 33.7-25.6 33.7-6.1-8.8-12.3-11.3-12.3-11.3a115 115 0 0 1-7.6 8.9c11.2 3 20.6 14.3 20.6 14.3 20.3-32.5 34.7-36.9 34.7-36.9z" opacity=".27"/>
   </g>
   <path id="timer-line" d="m100 500-50 50" fill="none" stroke="#000" stroke-width="2px"/>
   <text x="-23.65" y="408.8" fill="#33b5e5" font-size="32px">TIMER</text>
   <g id="timer-badge">
    <circle cx="240" cy="433" r="130" fill="#33b5e5"/>
    <g id="timer-title" transform="translate(23)">
     <text id="timer-text" transform="translate(215,360)" fill="#ffffff" font-size="29px">0</text>
    </g>
    <g id="timer-details">
     <g transform="translate(10)">
      <path transform="translate(-25.4 -1.4)" d="m257 380-11.8 49 11.8 49a49 49 0 0 0 0-98.1z" fill="#54bbff"/>
      <path transform="translate(-25.4 -1.4)" d="m208 429a49 49 0 0 0 49 49v-98a49 49 0 0 0-49 49z" fill="#8dd2ff"/>
      <path transform="translate(-25.4 -1.4)" d="m257 386v86.2a43.1 43.1 0 0 0 0-86.2z" fill="#c6e8ff"/>
      <path transform="translate(-25.4 -1.4)" d="m295 429c0-23.8-16.7-43.1-37.2-43.1a43.1 43.1 0 0 0 0 86.2c20.5 0 37.2-19.3 37.2-43.1z" fill="#fff"/>
      <path transform="translate(-25.4 -1.4)" d="m257 468a1.46 1.46 0 0 1-1.5-1.5v-36.8l-15.4-26.7a1.5 1.5 0 1 1 2.6-1.5l15.8 27.4v37.6a1.46 1.46 0 0 1-1.5 1.5z" fill="#0c4870"/>
      <g fill="#54bbff">
       <circle cx="232" cy="391" r="1.48"/>
       <circle cx="213" cy="396" r="1.48"/>
       <circle cx="200" cy="409" r="1.48"/>
       <circle cx="195" cy="428" r="1.48"/>
       <circle cx="200" cy="446" r="1.48"/>
       <circle cx="213" cy="460" r="1.48"/>
       <circle cx="251" cy="460" r="1.48"/>
       <circle cx="264" cy="446" r="1.48"/>
       <circle cx="269" cy="428" r="1.48"/>
       <circle cx="264" cy="409" r="1.48"/>
       <circle cx="251" cy="396" r="1.48"/>
      </g>
      <circle cx="232" cy="428" r=".57" fill="#0789de"/>
     </g>
     <text x="202.3" y="513.1" fill="#c2e9f7" font-size="24px">Hourly</text>
    </g>
   </g>
  </g>
  <g id="water" transform="matrix(.109 0 0 -.116 -112 1011)">
   <ellipse transform="scale(1,-1)" cx="2245" cy="-115" rx="1029" ry="256" fill-opacity=".17" stroke-width="3.92"/>
   <path d="m1517 2278v-1906s131-177 822-177c691 0 822 177 822 177v1902c47.2 15.2 67.1 26.2 67.1 26.2v-2086s-141-192-889-192c-748 0-889 192-889 192v2086s22.3-9.41 67-22.7" fill="#a3d6f2"/>
   <g id="water-level">
    <path d="m2914 829c0-13.4 10.8-24.2 24.2-24.2 13.4 0 24.2 10.8 24.2 24.2 0 13.3-10.8 24.2-24.2 24.2-13.3 0-24.2-10.8-24.2-24.2" fill="#82d7f5"/>
    <path id="water-liquid" d="m2339 1976c691 0 822 50.3 822 50.3v-1653s-131-177-822-177c-691 0-822 177-822 177v1653s131-50.3 822-50.3" fill="#29baf0"/>
    <path id="water-shadow" d="m2339 1976c-713-18.2-645-792-494-1009 290-417 1316-594 1316-594s-131-177-822-177c-691 0-822 177-822 177v1653s131-50.3 822-50.3" fill="#03a4e7"/>
    <path d="m1517 539c0-67.2 368-129 822-129 454 0 822 61.4 822 129 0 67.2-368 117-822 117-454 0-822-49.7-822-117" fill="#088acb"/>
    <g fill="#82d7f5">
     <path d="m1905 560c0-27.4 22.2-49.5 49.5-49.5 27.4 0 49.5 22.2 49.5 49.5 0 27.3-22.2 49.5-49.5 49.5-27.3 0-49.5-22.2-49.5-49.5"/>
     <path d="m2432 755c0-27.4 22.2-49.5 49.5-49.5 27.4 0 49.5 22.2 49.5 49.5 0 27.4-22.2 49.5-49.5 49.5-27.4 0-49.5-22.2-49.5-49.5"/>
     <path d="m2574 549c0-17.6 14.3-31.8 31.8-31.8 17.6 0 31.8 14.2 31.8 31.8 0 17.6-14.2 31.9-31.8 31.9-17.6 0-31.8-14.3-31.8-31.9"/>
    </g>
    <path d="m2924 534c0-12.7 10.3-23 23-23 12.7 0 23 10.3 23 23 0 12.7-10.3 23-23 23-12.7 0-23-10.3-23-23" fill="#b5e7f8"/>
    <g fill="#82d7f5">
     <path d="m1746 521c0-17.6 14.2-31.8 31.8-31.8 17.6 0 31.8 14.2 31.8 31.8 0 17.6-14.2 31.8-31.8 31.8-17.6 0-31.8-14.2-31.8-31.8"/>
     <path d="m2185 488c0-22.5 18.2-40.7 40.7-40.7 22.5 0 40.7 18.2 40.7 40.7s-18.2 40.7-40.7 40.7c-22.5 0-40.7-18.2-40.7-40.7"/>
     <path d="m3068 1015c0-10.3 8.36-18.7 18.7-18.7 10.3 0 18.7 8.36 18.7 18.7 0 10.3-8.36 18.7-18.7 18.7-10.3 0-18.7-8.35-18.7-18.7"/>
     <path d="m1745 1197c0-10.3 8.36-18.7 18.7-18.7 10.3 0 18.7 8.36 18.7 18.7 0 10.3-8.37 18.7-18.7 18.7-10.3 0-18.7-8.35-18.7-18.7"/>
     <path d="m2297 1356c0-10.3 8.36-18.7 18.7-18.7 10.3 0 18.7 8.36 18.7 18.7 0 10.3-8.36 18.7-18.7 18.7-10.3 0-18.7-8.37-18.7-18.7"/>
    </g>
    <path d="m2481 1101c0-10.3 8.36-18.7 18.7-18.7s18.7 8.37 18.7 18.7c0 10.3-8.36 18.7-18.7 18.7s-18.7-8.35-18.7-18.7" fill="#b5e7f8"/>
    <path d="m3036 603c0-22.2 18-40.2 40.2-40.2 22.2 0 40.2 18 40.2 40.2s-18 40.2-40.2 40.2c-22.2 0-40.2-18-40.2-40.2" fill="#82d7f5"/>
    <path d="m2204 712c0-11.1 9.01-20.1 20.1-20.1 11.1 0 20.1 9.01 20.1 20.1 0 11.1-9 20.1-20.1 20.1-11.1 0-20.1-9-20.1-20.1" fill="#b5e7f8"/>
    <path d="m1556 638c0-11.1 9-20.1 20.1-20.1 11.1 0 20.1 9 20.1 20.1 0 11.1-8.99 20.1-20.1 20.1-11.1 0-20.1-9.01-20.1-20.1" fill="#b5e7f8"/>
    <path d="m1800 808c0-20.8 16.9-37.7 37.7-37.7 20.8 0 37.7 16.9 37.7 37.7 0 20.8-16.9 37.7-37.7 37.7-20.8 0-37.7-16.9-37.7-37.7" fill="#82d7f5"/>
    <path d="m2062 1052c0-20.8 16.9-37.7 37.7-37.7 20.8 0 37.7 16.9 37.7 37.7 0 20.8-16.9 37.7-37.7 37.7-20.8 0-37.7-16.9-37.7-37.7" fill="#82d7f5"/>
   </g>
   <path d="m2884 1987v-1618l-220-26.9v1637c87.1 1.94 159 4.54 220 7.48" fill="#b0e5f7"/>
   <path d="m1695 1892c-11.1 162-72.6 145-78.2 5.6-5.56-140-43.9-902-22.7-1100 7.62-71.1 83.5-137 101-15.1 19.4 135 0 1110 0 1110" fill="#b0e5f7"/>
   <g id="water-reflection">
    <path d="m1517 2024c0-67.2 368-129 822-129 454 0 822 61.4 822 129 0 67.2-368 117-822 117-454 0-822-49.6-822-117" fill="#82d7f5"/>
    <path d="m1761 2108c48.2 6.66 102 12.4 161 17.2l367-230c-76.7 0.78-151 3.29-220 7.28l-308 205" fill="#bfeafb"/>
    <path d="m1993 2130c105 6.72 223 10.4 347 10.4h5.51l286-229-6.11-7.87c-74-4.47-153-7.29-235-8.11l-396 235" fill="#bfeafb"/>
    <path d="m2339 1909c358 0 665 36.2 796 84.2-91.6-54-413-97.6-796-97.6-383 0-705 43.6-796 97.6 131-47.9 438-84.2 796-84.2" fill="#def4fd"/>
   </g>
   <g>
    <path d="m2884 444c-65-9.27-139-17-220-22.8v225c80.9-4.83 155-11.5 220-19.5v-183" fill="#94dcf5"/>
    <path d="m2884 1929c-65-9.24-139-17-220-22.8v225c80.9-4.76 155-11.4 220-19.4v-183" fill="#cfeffc"/>
    <path d="m2339 410c584 0 774 89.9 822 132l0.14-194s-131-153-822-153c-691 0-823 146-823 146l0.96 201c47.5-42.1 238-132 822-132" fill="#84bfe4"/>
    <path d="m2884 447v-78.6l-220-26.9v79.4c86.6 6.62 159 15.7 220 26.1" fill="#a3d6f2"/>
    <path d="m2339 361c809 0 889 180 889 180v-325c0-84.2-293-216-889-216-593 0-889 138-889 216v325s75.5-180 889-180" fill="#a3d6f2"/>
    <path d="m2884 46.5c-64-12.8-138-23.5-220-31.5v357c85.4 6.73 158 16 220 26.8v-353" fill="#c4ebfb"/>
    <path d="m2339 43.8c596 0 889 131 889 216v-43.8c0-84.2-293-216-889-216-593 0-889 138-889 216v43.8c0-77.4 296-216 889-216" fill="#6699ba"/>
    <path d="m2884 46.5c-64-12.8-138-23.5-220-31.5v43.8c82 8 156 18.6 220 31.4v-43.7" fill="#98c8e4"/>
    <path d="m1528 2313c0 49 363 85.1 811 85.1 448 0 811-36.1 811-85.1 0-49.1-363-93.8-811-93.8-448 0-811 44.7-811 93.8zm-78.2-10c0-67.2 398-129 889-129 491 0 889 61.4 889 129 0 67.1-398 117-889 117-491 0-889-49.7-889-117" fill="#84bfe4"/>
   </g>
   <text id="water-text" transform="scale(1.09 -.916)" x="1668.1747" y="-1694.7585" fill="#ffffff" font-size="270px" stroke-width="9.31">100%</text>
   <text transform="scale(1.09 -.916)" x="1294.2524" y="438.40674" fill="#33b5e5" font-size="290px" stroke-width="8.38">WATER LEVEL</text>
  </g>
  <g id="moisture" transform="matrix(.997 0 0 1 43.9 157)">
   <path d="m310 550-160-70" fill="none" stroke="#000" stroke-width="2px"/>
   <text x="-16.66" y="345.60001" fill="#33b5e5" font-size="31.1px" stroke-width=".9">MOISTURE</text>
   <path transform="translate(-25.4,-1.4)" d="m63.4 600h187v68h-187z" fill="none"/>
   <g id="moisture-badge">
    <circle cx="130" cy="490" r="130" fill="#33b5e5"/>
    <g id="moisture-title">
     <text id="moisture-text" transform="translate(90,440)" fill="#ffffff" font-size="29px">0</text>
    </g>
    <g id="moisture-details" font-size="24px">
     <g id="moisture-icon" transform="translate(-28,-25)">
      <path d="m192 539c0 17.2-15 31.1-33.4 31.1s-33.4-14-33.4-31.1c0-22 33.4-53.1 33.4-53.1s33.4 31.1 33.4 53.1z" fill="#87d2f3"/>
      <g fill="#2170a6">
       <path d="m158 572c-19.5 0-35.3-14.8-35.3-33 0-22.5 32.6-53.2 34-54.5a2 2 0 0 1 2.7 0c1.4 1.3 34 32 34 54.5 0 18.2-15.8 33-35.4 33zm0-83.5c-6.2 6.1-31.4 32-31.4 50.5 0 16.2 14.1 29.3 31.4 29.3 17.4 0 31.5-13.1 31.5-29.3 0-18.5-25.2-44.4-31.5-50.5z"/>
       <path d="m158 561c-13 0-23.5-9.9-23.5-22h3.9c0 10.1 8.8 18.3 19.6 18.3z"/>
      </g>
     </g>
     <text transform="translate(95,580)" fill="#c2e9f7">Sensor</text>
    </g>
   </g>
  </g>
  <g id="pot-size" transform="translate(-10 .6)">
   <path transform="translate(-25.4,-1.4)" d="m826 751 68.8 74" fill="none" stroke="#000" stroke-width="2px"/>
   <g id="pot-size-badge">
    <circle cx="840" cy="888" r="130" fill="#d9b48f"/>
    <g id="pot-size-title">
     <text id="pot-size-text" transform="translate(836,808)" fill="#ffffff" font-size="29px">2</text>
    </g>
    <g id="pot-size-details" font-size="24px">
     <g id="water-icon">
      <path transform="translate(-25.4,-1.4)" d="m902 885v26.3a8.81 8.81 0 0 1-8.6 9h-39.5a8.81 8.81 0 0 1-8.5-9v-26.3l6-1.6a8.43 8.43 0 0 1 5 0.2l3.5 1.3a8.63 8.63 0 0 0 5 0.2l6.6-1.8a8.31 8.31 0 0 1 4.4 0l6.6 1.8a8.63 8.63 0 0 0 5-0.2l3.5-1.3a8.4 8.4 0 0 1 5-0.2z" fill="#76aadb"/>
      <path transform="translate(-25.4,-1.4)" d="m902 844a1.46 1.46 0 0 0-1.4 1.5v37.7l-4.2-1.1a9.88 9.88 0 0 0-5.8 0.2l-3.6 1.3a7.18 7.18 0 0 1-4.2 0.2l-6.6-1.8a9.86 9.86 0 0 0-5 0l-6.6 1.8a7.15 7.15 0 0 1-4.3-0.2l-3.5-1.3a9.91 9.91 0 0 0-5.8-0.2l-4.2 1.1v-7.7h4.2a1.5 1.5 0 0 0 0-3h-4.2v-3h7.1a1.51 1.51 0 0 0 0-3h-7.1v-3h4.3a1.5 1.5 0 0 0 0-3h-4.3v-3h7.1a1.5 1.5 0 0 0 0-3h-7.1v-3h4.3a1.5 1.5 0 0 0 0-3h-4.3v-3a1.42 1.42 0 1 0-2.8 0v65.9a10.9 10.9 0 0 0 0.1 1.8 1 1 0 0 0 0 0.1 10.2 10.2 0 0 0 9.8 8.7h39.5c5.5 0 10-4.8 10-10.6v-65.9a1.46 1.46 0 0 0-1.5-1.5zm-1.4 67.4a7.35 7.35 0 0 1-7.1 7.6h-39.6a7.15 7.15 0 0 1-6.5-4.5h6.5a1.5 1.5 0 0 0 0-3h-7.1v-25.2l4.9-1.3a7.15 7.15 0 0 1 4.2 0.1l3.5 1.3a9.88 9.88 0 0 0 5.9 0.2l6.6-1.7a7.17 7.17 0 0 1 3.6 0l6.6 1.7a9.88 9.88 0 0 0 5.8-0.2l3.6-1.3a7.18 7.18 0 0 1 4.2-0.1l4.9 1.3z"/>
      <path transform="translate(-25.4,-1.4)" d="m860 912a2.1 2.1 0 0 0-0.1-0.3 1 1 0 0 0-0.2-0.2 1.37 1.37 0 0 0-0.2-0.2l-0.2-0.1-0.3-0.1a1.38 1.38 0 0 0-1.3 0.4 1 1 0 0 0-0.1 0.2 0.91 0.91 0 0 0-0.2 0.3l-0.1 0.3a1.42 1.42 0 0 0 0 0.6l0.1 0.3a0.75 0.75 0 0 0 0.2 0.2l0.1 0.2 0.2 0.2a1 1 0 0 0 0.3 0.2 0.62 0.62 0 0 0 0.3 0h0.2a1.33 1.33 0 0 0 0.3 0 0.78 0.78 0 0 0 0.3 0 0.8 0.8 0 0 0 0.2-0.2 2 2 0 0 0 0.2-0.2 1.55 1.55 0 0 0 0.4-1 1 1 0 0 0 0-0.3 1.43 1.43 0 0 0-0.1-0.3z"/>
     </g>
     <text transform="translate(762,960)" fill="#fcebda">Water Quantity</text>
    </g>
   </g>
   <text x="836.875" y="998" fill="#d9b48f" font-size="32px">POT SIZE</text>
  </g>
  <g id="graph" transform="translate(-58,80)">
   <g id="graph-badge">
    <circle cx="788" cy="130" r="130" fill="#ffc30f"/>
    <g id="graph-title">
     <text transform="translate(738,54)" fill="#ffffff" font-size="29px">GRAPH</text>
    </g>
    <g id="graph-details" font-size="24">
     <g id="graph-icon">
      <path transform="translate(-25.4 -1.4)" d="m861 162h-86.1v-89.1a2.1 2.1 0 1 0-4.2 0v89.1h-6.3a2.17 2.17 0 0 0 0 4.3h6.3v6.5a2.1 2.1 0 1 0 4.2 0v-6.5h86.1a2.17 2.17 0 0 0 0-4.3z" fill="#455a64"/>
      <path transform="translate(-25.4 -1.4)" d="m781 157a2.13 2.13 0 0 1-2.1-2.2 2.26 2.26 0 0 1 0.5-1.3l16.7-21.7a2 2 0 0 1 1.6-0.9 2 2 0 0 1 1.6 0.7l6.5 6.7 11.2-19.3a2 2 0 0 1 1.7-1.1 2.1 2.1 0 0 1 1.8 0.8l5.6 7.3 7.5-36.8a2.07 2.07 0 0 1 3.5-1.08l10.9 11.2 11.1-15.4a2.05 2.05 0 0 1 3-0.44 2.24 2.24 0 0 1 0.4 3l-12.6 17.4a2.06 2.06 0 0 1-3 0.4l-0.2-0.2-9.8-10.2-7.6 37.3a2.09 2.09 0 0 1-2.5 1.7 2.16 2.16 0 0 1-1.2-0.7l-6.5-8.5-11 19.1a2.09 2.09 0 0 1-2.9 0.7 4.24 4.24 0 0 1-0.4-0.3l-6.7-6.9-15.5 19.8a2.09 2.09 0 0 1-1.6 0.8z" fill="#2196f3"/>
     </g>
     <text transform="translate(720,210)" fill="#fcefca">Performance</text>
    </g>
   </g>
   <path transform="translate(-25.4 -1.4)" d="m719 178h187v68h-187z" fill="none"/>
  </g>
  <g id="led">
   <g id="led-enabled" fill="#5fd35f" fill-rule="evenodd">
    <path transform="translate(-25.4 -1.4)" d="m965 81.1a37.8 37.8 0 0 1-7.63-7c-9.57 5.9-19.7 26.9-19.7 26.9-4.77-7-9.55-9-9.55-9a91.5 91.5 0 0 1-5.87 7c8.65 2.45 15.9 11.4 15.9 11.4 15.7-25.8 26.8-29.3 26.8-29.3z"/>
    <path transform="translate(-25.4 -1.4)" d="m966 81.1a37.5 37.5 0 0 1-7.62-7c-9.55 5.94-19.7 26.9-19.7 26.9-4.77-7-9.55-9-9.55-9a91.2 91.2 0 0 1-5.87 7c8.65 2.44 15.9 11.4 15.9 11.4 15.7-25.8 26.8-29.3 26.8-29.3z" opacity=".27" style="isolation:isolate"/>
   </g>
   <path transform="translate(-25.4 -1.4)" d="m751 124h145v54.1h-145z" fill="none"/>
   <g id="led-badge">
    <ellipse cx="798" cy="86" rx="84" ry="84" fill="#fb3103"/>
    <g id="led-title">
     <text transform="translate(780,36)" fill="#fff" font-size="23px">LED</text>
    </g>
    <g id="led-details" font-size="19">
     <g id="led-icon">
      <path transform="translate(-25.4 -1.4)" d="m820 103h2.49v12h-2.49z"/>
      <path transform="translate(-25.4 -1.4)" d="m830 103h2.48v16.4h-2.48z"/>
      <path transform="translate(-25.4 -1.4)" d="m812 96.6h27.4a1.22 1.22 0 0 1 1.24 1.2v2.4a1.22 1.22 0 0 1-1.24 1.21h-27.4a1.23 1.23 0 0 1-1.24-1.21v-2.4a1.23 1.23 0 0 1 1.24-1.2z"/>
      <path transform="translate(-25.4 -1.4)" d="m825 88.1a1.2 1.2 0 0 1-0.9-0.65l-0.91-1.74h-0.47v8.42h7.46v-8.42h-2l-2.12 2.06a1.31 1.31 0 0 1-1.06 0.33z"/>
      <path transform="translate(-25.4 -1.4)" d="m820 84.5a1.23 1.23 0 0 1 1.25-1.21h2.49a1.26 1.26 0 0 1 1.11 0.67l0.47 0.91 1.27-1.23a1.31 1.31 0 0 1 0.88-0.35h3.73a1.23 1.23 0 0 1 1.24 1.21v9.62h5v-20.4a11.2 11.2 0 0 0-22.4 0v20.4h5zm-3.75-10.8a9.78 9.78 0 0 1 10-9.62v2.4a7.35 7.35 0 0 0-7.46 7.22z"/>
      <path transform="translate(-25.4 -1.4)" d="m825 47.2h2.49v7.21h-2.49z"/>
      <path transform="translate(-25.4 -1.4)" d="m799 58.6 1.76-1.64 5.27 5.1-1.74 1.64z"/>
      <path transform="translate(-25.4 -1.4)" d="m789 82.1h7.46v2.41h-7.46z"/>
      <path transform="translate(-25.4 -1.4)" d="m856 82.1h7.46v2.41h-7.46z"/>
      <path transform="translate(-25.4 -1.4)" d="m846 62.1 5.27-5.1 1.76 1.69-5.28 5.1z"/>
     </g>
     <text transform="translate(748,136)" fill="#ffb5aa">Educational</text>
    </g>
   </g>
  </g>
  <g id="wireless">
   <g id="wireless-badge">
    <circle cx="830" cy="227" r="130" fill="#a8d92e"/>
    <g id="wireless-title">
     <text transform="translate(804,148)" fill="#fff" font-size="29px">WiFi</text>
    </g>
    <g id="wireless-details" font-size="24">
     <g id="wireless-icon">
      <path transform="translate(-25.4 -1.4)" d="m856 240c-4.5 0-8.1 3.9-8.1 8.7s3.6 8.7 8.1 8.7 8.1-3.9 8.1-8.7-3.6-8.7-8.1-8.7z"/>
      <path transform="translate(-25.4 -1.4)" d="m856 170a68.3 68.3 0 0 0-45 16.9 3.06 3.06 0 0 0-0.4 4.1l3.7 5.1a2.55 2.55 0 0 0 3.8 0.4 59.2 59.2 0 0 1 76.9-1.4 2.56 2.56 0 0 0 3.7-0.5l2.7-3.6a3.06 3.06 0 0 0-0.4-4.1 68.3 68.3 0 0 0-45-16.9z"/>
      <path transform="translate(-25.4 -1.4)" d="m856 194a48.5 48.5 0 0 0-31.9 11.9 3 3 0 0 0-0.3 4l3.7 5.1a2.58 2.58 0 0 0 3.8 0.4 39.3 39.3 0 0 1 50.6-1.3 2.57 2.57 0 0 0 3.7-0.5l2.6-3.7a3.06 3.06 0 0 0-0.4-4 48.5 48.5 0 0 0-31.8-11.9z"/>
      <path transform="translate(-25.4 -1.4)" d="m838 224a3 3 0 0 0-0.4 4l3.8 5a2.52 2.52 0 0 0 3.7 0.5 19.3 19.3 0 0 1 12.7-4.9 18.8 18.8 0 0 1 11.3 3.8 2.53 2.53 0 0 0 3.5-0.7l2.7-3.7a3.05 3.05 0 0 0-0.3-4 28.6 28.6 0 0 0-37 0z"/>
     </g>
     <text transform="translate(785,292)" fill="#ebf4ce">Setttings</text>
    </g>
   </g>
  </g>
  <g id="power">
   <text transform="translate(810 600)" fill="#cf6434" font-size="32px">POWER</text>
   <g id="power-badge">
    <circle cx="838" cy="495" r="130" fill="#fb6605"/>
    <g id="power-title">
     <text id="power-text" transform="translate(823 418)" fill="#fff" font-size="29px">0</text>
    </g>
    <g id="power-details" font-size="24">
     <g id="power-icon">
      <g fill-rule="evenodd">
       <path transform="translate(-25.4 -1.4)" d="m817 448v65.6a3.57 3.57 0 0 0 3.7 3.5h41.1a3.56 3.56 0 0 0 3.6-3.5v-65.6a3.57 3.57 0 0 0-3.6-3.5h-41.1a3.58 3.58 0 0 0-3.7 3.5zm8.7 60.6v-55.6h31v55.6z" fill="#fff"/>
       <path transform="translate(-25.4 -1.4)" d="m832 435a4.54 4.54 0 0 0-4.6 4.5v4.4h29.2v-4.4a4.54 4.54 0 0 0-4.6-4.5z" fill="#a6afc6"/>
       <path transform="translate(-25.4 -1.4)" d="m885 451v7.8a1.3 1.3 0 0 0 1.4 1.3h25.1a1.3 1.3 0 0 0 1.4-1.3v-7.8a1.31 1.31 0 0 0-1.4-1.3h-25.1a1.32 1.32 0 0 0-1.4 1.3z" fill="#a8d92e"/>
       <path transform="translate(-25.4 -1.4)" d="m888 460v8.5a8.69 8.69 0 0 0 8.8 8.5h3.5a8.69 8.69 0 0 0 8.8-8.5v-8.5z" fill="#a6afc6"/>
      </g>
      <g fill="#a8d92e" fill-rule="evenodd">
       <path transform="translate(-25.4 -1.4)" d="m898 489a15.9 15.9 0 1 0 16.3 15.8 16.1 16.1 0 0 0-16.3-15.8z"/>
       <path transform="translate(-25.4 -1.4)" d="m826 453h31v14.8h-31z"/>
       <path transform="translate(-25.4 -1.4)" d="m826 467h31v14.2h-31z"/>
       <path transform="translate(-25.4 -1.4)" d="m826 482h31v13h-31z"/>
       <path transform="translate(-25.4 -1.4)" d="m826 495h31v13.6h-31z"/>
      </g>
      <path transform="translate(-25.4 -1.4)" d="m901 487v-7.8a10.7 10.7 0 0 0 10.6-10.5v-6.5a3.34 3.34 0 0 0 3.3-3.3v-7.8a3.36 3.36 0 0 0-3.4-3.3h-3.2v-12.9a2.07 2.07 0 0 0-4.1 0v12.9h-10.5v-12.9a2.1 2.1 0 0 0-4.2 0v12.9h-3.1a3.36 3.36 0 0 0-3.4 3.3v7.8a3.36 3.36 0 0 0 3.4 3.3v6.5a10.7 10.7 0 0 0 10.5 10.5v7.8a17.8 17.8 0 0 0 0 35.5v1.6a7.87 7.87 0 0 1-8 7.7h-37a7.86 7.86 0 0 1-7.9-7.7v-5.7h18.5a5.6 5.6 0 0 0 5.7-5.5v-23.8a2.1 2.1 0 0 0-4.2 0v23.8a1.54 1.54 0 0 1-1.5 1.4h-41.1a1.54 1.54 0 0 1-1.5-1.4v-65.6a1.55 1.55 0 0 1 1.5-1.5h41.1a1.54 1.54 0 0 1 1.5 1.5v23.8a2.1 2.1 0 0 0 4.2 0v-23.8a5.61 5.61 0 0 0-5.7-5.5h-3.9v-2.4a6.56 6.56 0 0 0-6.7-6.5h-20a6.57 6.57 0 0 0-6.6 6.5v2.4h-3.9a5.61 5.61 0 0 0-5.7 5.5v65.6a5.6 5.6 0 0 0 5.7 5.5h18.5v5.7a11.9 11.9 0 0 0 12.1 11.7h37a12 12 0 0 0 12.1-11.7v-1.6a17.8 17.8 0 0 0 0-35.5zm-71.6-47.6a2.48 2.48 0 0 1 2.5-2.5h20a2.47 2.47 0 0 1 2.5 2.5v2.4h-25zm57.7 12.4h23.7v6.4h-23.7zm3.4 16.9v-6.5h17v6.5a6.61 6.61 0 0 1-6.8 6.5h-3.5a6.61 6.61 0 0 1-6.7-6.5zm8.5 49.9a13.8 13.8 0 1 1 14.2-13.9 14.1 14.1 0 0 1-14.2 13.9z"/>
      <path transform="translate(-25.4 -1.4)" d="m902 503h-3.5l2.7-5.4a2 2 0 0 0-0.9-2.7 2.13 2.13 0 0 0-2.8 0.9l-4.2 8.3a2 2 0 0 0 1.9 2.9h3.4l-2.7 5.4a2 2 0 0 0 0.9 2.7 2.19 2.19 0 0 0 0.9 0.2 2.07 2.07 0 0 0 1.9-1.1l4.2-8.3a1.22 1.22 0 0 0 0.1-0.2 2 2 0 0 0-1.9-2.7z"/>
      <path transform="translate(-25.4 -1.4)" d="m826 451a2 2 0 0 0-2.1 2v55.6a2 2 0 0 0 2.1 2h31a2.06 2.06 0 0 0 2.1-2v-55.6a2 2 0 0 0-2.1-2zm29 55.6h-26.9v-9.6h26.9zm0-13.7h-26.9v-9h26.9zm0-13h-26.9v-10.1h26.9zm0-14.1h-26.9v-10.8h26.9z"/>
      <path transform="translate(-25.4 -1.4)" d="m866 478a2 2 0 0 0-2.1 2 2.07 2.07 0 1 0 2.1-2z"/>
     </g>
     <rect x="745" y="540" width="187" height="68" fill="none"/>
     <text transform="translate(811,559)" fill="#ebf4ce">Sleep</text>
     <text transform="translate(798,589)" fill="#ebf4ce">Minutes</text>
    </g>
   </g>
  </g>
 </g>
</svg>
