<?xml version="1.0" encoding="UTF-8"?>
<svg version="1.1" viewBox="0 0 971 1066" xmlns="http://www.w3.org/2000/svg" xmlns:cc="http://creativecommons.org/ns#" xmlns:dc="http://purl.org/dc/elements/1.1/" xmlns:rdf="http://www.w3.org/1999/02/22-rdf-syntax-ns#">
 <metadata>
  <rdf:RDF>
   <cc:Work rdf:about="">
    <dc:format>image/svg+xml</dc:format>
    <dc:type rdf:resource="http://purl.org/dc/dcmitype/StillImage"/>
   </cc:Work>
  </rdf:RDF>
 </metadata>
 <g id="background">
  <g id="plant-diagram" transform="translate(-47 73)">
   <path transform="translate(-25,-1.4)" d="m560 919-0.88-178 285 0.8v177z" fill="#5b341e"/>
   <path transform="translate(-25,-1.4)" d="m560 742 0.88 177-305-0.23v-175z" fill="#663a21"/>
   <path transform="translate(-25,-1.4)" d="m341 744-8.7 28 45 13-7.9 17 14-18-41-14z" fill="#33b5e5"/>
   <path transform="translate(-25,-1.4)" d="m256 745v-74l588 2.7v71z" fill="#7f4a2a"/>
   <path d="m434 725 61-8.2 21 3.9-1.2 12-91 5.5" fill="#663a21"/>
   <ellipse cx="787" cy="725" rx="5" ry="2.4" fill="#fff" fill-opacity=".25"/>
   <path transform="translate(-25,-1.4)" d="m780 727-22 21 32-2 3.8-12" fill="#663a21"/>
   <path transform="translate(-25,-1.4)" d="m621 818 6.7-23 23-5.8 12-5.8-8.7 8-18 5.8z" fill-opacity=".2"/>
   <path d="m516 701-17-8.1-25 6.3 14 7" fill="#663a21"/>
   <ellipse cx="573" cy="665" rx="5" ry="2.4" fill="#fff" fill-opacity=".25"/>
   <path transform="translate(-25,-1.4)" d="m736 677-29 13 46 1.2 2.9-8.9z" fill="#663a21"/>
   <g fill="#6f3b1f">
    <path transform="translate(-25,-1.4)" d="m432 693-88-4.8-18 12 93-0.73z"/>
    <path d="m552 683-23 15 34 0.73 3.5-8"/>
    <path transform="translate(-25,-1.4)" d="m731 725-79-16 24-5.1 30-0.44 40 18"/>
   </g>
   <path transform="translate(-25,-1.4)" d="m702 742 13-3.1 13 7.9" fill="#663a21"/>
   <path d="m575 703-16 13c-46 20-6.4 7.8 30-2.9" fill="#6f3b1f"/>
   <g fill="#fff" fill-opacity=".25">
    <ellipse cx="291" cy="717" rx="8.4" ry="4.1"/>
    <ellipse cx="274" cy="703" rx="5" ry="2.4"/>
    <ellipse cx="454" cy="707" rx="8.4" ry="4.1" opacity=".72"/>
    <ellipse cx="411" cy="677" rx="8.4" ry="4.1"/>
    <ellipse cx="624" cy="692" rx="8.4" ry="4.1"/>
   </g>
   <path transform="translate(-25,-1.4)" d="m795 691-29 9.7 45 11 10-17" fill="#6f3b1f"/>
   <g fill="#fff" fill-opacity=".25">
    <ellipse cx="792" cy="692" rx="8.4" ry="4.1"/>
    <ellipse cx="710" cy="734" rx="8.4" ry="4.1"/>
    <ellipse cx="410" cy="712" rx="5" ry="2.4"/>
    <ellipse cx="476" cy="686" rx="5" ry="2.4"/>
    <ellipse cx="386" cy="674" rx="5" ry="2.4"/>
    <ellipse cx="691" cy="668" rx="5" ry="2.4"/>
    <ellipse cx="810" cy="706" rx="5" ry="2.4"/>
    <ellipse cx="612" cy="707" rx="5" ry="2.4"/>
    <ellipse cx="656" cy="693" rx="8.4" ry="4.1"/>
    <ellipse cx="685" cy="728" rx="5" ry="2.4"/>
    <ellipse cx="316" cy="709" rx="5" ry="2.4"/>
   </g>
   <path transform="translate(-25,-1.4)" d="m376 706-29 13 37-6 0.88-5.1" fill="#33b5e5"/>
   <ellipse cx="589" cy="727" rx="7.6" ry="3.7" fill="#fff" fill-opacity=".25"/>
   <g fill-opacity=".2">
    <path transform="translate(-25,-1.4)" d="m443 819-15 16-34 5.7 39-2.5z"/>
    <path transform="translate(-25,-1.4)" d="m353 883 44 6.2 13-9.4 31 21-29-14-12 6.6-45-8.3z"/>
    <path d="m283 832-5.2 13 20-18"/>
    <path transform="translate(-25,-1.4)" d="m609 869 8.7 11 9.6 0.29 25 16-20-17-9.3-2.2z"/>
    <path d="m633 831 17 0.44 16 6.1 6.4-6.1-2.9 9-17-5.4z"/>
    <path transform="translate(-25,-1.4)" d="m420 900 18 3.6 20-2.2-20 4.4z"/>
    <path transform="translate(-25,-1.4)" d="m352 847 29-5.4 31 3.6-28-0.43z"/>
    <path transform="translate(-25,-1.4)" d="m386 795 21-9-13 12z"/>
    <path transform="translate(-25,-1.4)" d="m615 752 16 7.3 30 0.43-31-4.4z"/>
    <path d="m702 785 9.6 9.9 24 2.5-20-5.4z"/>
    <path d="m726 841 12-11 17 2.6-12 0.73z"/>
    <path transform="translate(-25,-1.4)" d="m507 867 20 0.29 15 11-11-14z"/>
    <path transform="translate(-25,-1.4)" d="m523 817-26 14 18-5.5 17-1.4-8.7-5.4z"/>
   </g>
  </g>
  <g transform="translate(.34 -3.6)">
   <path d="m358 83a10 10 0 0 1 3.3 0.65v-0.65a18 18 0 0 1 18-18 17 18 0 0 1 7.7 1.8 27 28 0 0 1 26-21c15 0 27 12 27 28v0.04c0.082 0 0.2-0.04 0.36-0.04a13 14 0 0 1 0 28h-82a8.8 9 0 1 1 0-18" fill="#22a8ff" fill-opacity=".63" stroke-width=".33"/>
   <path d="m184 69a13 11 0 0 0-5.1 0.89v-0.89a27 23 0 0 0-38-21 41 36 0 0 0-80 8.5h-0.6a20 18 0 1 0 0 35h124a13 12 0 1 0 0-23" fill="#7be4ff" stroke-width=".46"/>
   <path d="m674 92a22 22 0 0 0-13 4.2c0-1.4 0.12-2.8 0.12-4.2a48 48 0 0 0-95 0 49 49 0 0 0 4.4 20 16 16 0 0 0-12-5.2 16 16 0 0 0 0 33 8.7 8.7 0 0 0 1.8-0.12v0.12h114a24 24 0 1 0 0-48" fill="#00d1ff"/>
  </g>
  <g transform="translate(124,254)">
   <g transform="translate(0,-4)" fill="#a84406" stroke="#1a1904">
    <rect x="60" y="68" width="587" height="22"/>
    <rect x="60" y="-4.3" width="587" height="22"/>
    <rect x="60" y="-28" width="587" height="22"/>
    <rect x="60" y="-52" width="587" height="22"/>
    <rect x="60" y="20" width="587" height="22"/>
    <rect x="60" y="44" width="587" height="22"/>
    <rect transform="translate(0,6)" x="1.5" y="-101" width="689" height="49" fill="#9f6638" stroke="#6f3b1f" stroke-width=".98"/>
    <rect transform="translate(0,6)" x="152" y="-40" width="126" height="86" fill="#d7d6d2" stroke="#e0b17b" stroke-width="7.4"/>
    <rect transform="translate(0,6)" x="209" y="-39" width="11" height="83" fill="#e0b17b" stroke="none"/>
   </g>
   <g transform="translate(.019 -.00011)">
    <g stroke="#999">
     <rect x="60" y="458" width="587" height="37" fill="#919191"/>
     <rect x="60" y="87" width="587" height="371" fill="#aa4a44"/>
     <g fill="none">
      <g stroke-width="3.2">
       <path d="m60 208 587-0.35"/>
       <path d="m60 227 587-0.35"/>
       <path d="m60 246 587-0.35"/>
       <path d="m60 264 587-0.35"/>
       <path d="m60 283 587-0.35"/>
       <path d="m60 303 587-0.35"/>
       <path d="m60 322 587-0.35"/>
       <path d="m60 341 587-0.35"/>
       <path d="m60 361 587-0.35"/>
       <path d="m61 188 587-0.35"/>
       <path d="m60 168 587-0.35"/>
       <path d="m60 147 587-0.35"/>
       <path d="m60 127 587-0.35"/>
       <path d="m59 108 587-0.35"/>
       <path d="m60 380 587-0.35"/>
       <path d="m60 400 587-0.35"/>
       <path d="m60 419 587-0.35"/>
      </g>
      <g stroke-width="3">
       <path d="m60 438 587-0.35"/>
       <path transform="translate(-124 -254)" d="m287 362v20"/>
       <path transform="translate(-124 -254)" d="m331 362v20"/>
       <path transform="translate(-124 -254)" d="m371 361v20"/>
      </g>
     </g>
    </g>
    <rect x="154" y="129" width="122" height="230" fill="#d7d6d2" stroke="#e0b17b" stroke-width="12"/>
    <rect transform="translate(-.019 .00011)" x="154" y="234" width="120" height="11" fill="#e0b17b"/>
    <path transform="translate(-.019 .00011)" d="m147 396 143-0.44 7.4-37-160 0.43z" fill="#a25a34" stroke="#6f3b1f" stroke-width="1.2"/>
    <path transform="translate(-.019 .00011)" d="m271 349a5.2 5.1 0 0 0-3.1 1c0-0.34 0.028-0.66 0.028-1a12 12 0 0 0-23 0 11 11 0 0 0 1 4.7 3.7 3.7 0 0 0-2.8-1.2 3.8 3.8 0 0 0 0 7.6 2.1 2.1 0 0 0 0.43-0.028v0.028h27a5.6 5.6 0 1 0 0-11" fill="#b8db29" stroke-width=".24"/>
    <path transform="translate(-.019 .00011)" d="m163 354a3.4 3.7 0 0 1 1.1 0.23v-0.23a5.8 6.4 0 0 1 5.8-6.4 5.7 6.4 0 0 1 2.5 0.64 8.9 9.9 0 0 1 8.6-7.5c4.9 0 8.9 4.4 8.9 9.9v0.014c0.027 0 0.066-0.014 0.12-0.014a4.4 5 0 0 1 0 9.9h-27a2.9 3.2 0 1 1 0-6.4" fill="#3bb84e" stroke-width=".11"/>
    <g fill="none" stroke="#999" stroke-width="3">
     <path transform="translate(-124 -254)" d="m362 691v20"/>
     <path d="m258 419v20"/>
     <path transform="translate(-124 -254)" d="m317 691v20"/>
     <path d="m215 419v20"/>
     <path transform="translate(-124 -254)" d="m270 692v20"/>
     <path transform="translate(-124 -254)" d="m225 692v20"/>
     <path d="m79 418v20"/>
     <path d="m122 419v20"/>
     <path d="m169 419v20"/>
     <path d="m100 400v20"/>
     <path transform="translate(-124 -254)" d="m268 653v20"/>
     <path transform="translate(-124 -254)" d="m316 653v20"/>
     <path d="m237 400v20"/>
     <path d="m277 399v20"/>
     <path d="m324 399v20"/>
     <path d="m375 399v20"/>
     <path d="m423 400v20"/>
     <path transform="translate(-124 -254)" d="m593 653v20"/>
     <path d="m323 361v20"/>
     <path transform="translate(-124 -254)" d="m425 594v20"/>
     <path transform="translate(-124 -254)" d="m423 556v20"/>
     <path transform="translate(-124 -254)" d="m425 517v20"/>
     <path transform="translate(-124 -254)" d="m423 480v20"/>
     <path transform="translate(-124 -254)" d="m424 441v20"/>
     <path transform="translate(-124 -254)" d="m423 402v20"/>
     <path d="m299 107v20"/>
     <path transform="translate(-124 -254)" d="m642 653v20"/>
     <path transform="translate(-124 -254)" d="m694 653v20"/>
     <path transform="translate(-124 -254)" d="m745 653v20"/>
     <path transform="translate(-124 -254)" d="m722 633v20"/>
     <path transform="translate(-124 -254)" d="m667 633v20"/>
     <path d="m492 379v20"/>
     <path transform="translate(-124 -254)" d="m568 633v20"/>
     <path d="m395 379v20"/>
     <path d="m346 379v20"/>
     <path d="m302 379v20"/>
     <path transform="translate(-124 -254)" d="m244 633v20"/>
     <path d="m77 380v20"/>
     <path transform="translate(-124 -254)" d="m221 615v20"/>
     <path transform="translate(-124 -254)" d="m243 594v20"/>
     <path transform="translate(-124 -254)" d="m201 593v20"/>
     <path transform="translate(-124 -254)" d="m221 575v20"/>
     <path transform="translate(-124 -254)" d="m245 556v20"/>
     <path transform="translate(-124 -254)" d="m263 575v20"/>
     <path transform="translate(-124 -254)" d="m201 556v20"/>
     <path transform="translate(-124 -254)" d="m219 536v20"/>
     <path transform="translate(-124 -254)" d="m261 537v20"/>
     <path d="m117 263v20"/>
     <path d="m79 264v20"/>
     <path d="m97 246v20"/>
     <path d="m138 245v20"/>
     <path d="m116 227v20"/>
     <path transform="translate(-124 -254)" d="m201 480v20"/>
     <path d="m137 207v20"/>
     <path transform="translate(-124 -254)" d="m218 461v20"/>
     <path transform="translate(-124 -254)" d="m504 692v20"/>
     <path d="m543 419v20"/>
     <path transform="translate(-124 -254)" d="m549 691v20"/>
     <path transform="translate(-124 -254)" d="m746 691v20"/>
     <path d="m621 361v20"/>
     <path d="m569 360v20"/>
     <path d="m517 361v20"/>
     <path d="m466 361v20"/>
     <path d="m422 361v20"/>
     <path d="m369 361v20"/>
     <path d="m570 438v20"/>
     <path transform="translate(-124 -254)" d="m642 692v20"/>
     <path transform="translate(-124 -254)" d="m596 692v20"/>
     <path transform="translate(-124 -254)" d="m720 672v20"/>
     <path d="m493 419v20"/>
     <path d="m445 418v20"/>
     <path d="m398 418v20"/>
     <path transform="translate(-124 -254)" d="m457 691v20"/>
     <path d="m350 418v20"/>
     <path transform="translate(-124 -254)" d="m408 692v20"/>
     <path d="m303 418v20"/>
     <path d="m136 168v20"/>
     <path transform="translate(-124 -254)" d="m256 382v20"/>
     <path d="m116 187v20"/>
     <path transform="translate(-124 -254)" d="m198 441v20"/>
     <path transform="translate(-124 -254)" d="m218 421v20"/>
     <path transform="translate(-124 -254)" d="m218 382v20"/>
     <path transform="translate(-124 -254)" d="m200 401v20"/>
     <path transform="translate(-124 -254)" d="m239 402v20"/>
     <path transform="translate(-124 -254)" d="m237 361v20"/>
     <path transform="translate(-124 -254)" d="m200 362v20"/>
     <path d="m347 339v20"/>
     <path d="m346 302v20"/>
     <path transform="translate(-124 -254)" d="m472 517v20"/>
     <path transform="translate(-124 -254)" d="m469 480v20"/>
     <path transform="translate(-124 -254)" d="m468 441v20"/>
     <path transform="translate(-124 -254)" d="m467 401v20"/>
     <path d="m343 107v20"/>
     <path d="m393 339v20"/>
     <path d="m368 321v20"/>
     <path d="m392 302v20"/>
     <path d="m392 264v20"/>
     <path d="m392 226v20"/>
     <path d="m391 186v20"/>
     <path d="m391 148v20"/>
     <path d="m391 106v20"/>
     <path d="m367 127v20"/>
     <path d="m365 167v20"/>
     <path d="m365 205v20"/>
     <path d="m368 246v20"/>
     <path d="m367 282v20"/>
     <path d="m443 341v20"/>
     <path d="m442 302v20"/>
     <path d="m441 263v20"/>
     <path d="m439 226v20"/>
     <path d="m438 187v20"/>
     <path d="m437 147v20"/>
     <path d="m438 107v20"/>
     <path d="m411 87v20"/>
     <path d="m462 87v20"/>
     <path d="m488 340v20"/>
     <path d="m486 303v20"/>
     <path d="m485 264v20"/>
     <path d="m487 225v20"/>
     <path d="m485 186v20"/>
     <path d="m486 146v20"/>
     <path d="m485 106v20"/>
     <path d="m461 126v20"/>
     <path d="m460 168v20"/>
     <path d="m460 207v20"/>
     <path d="m461 244v20"/>
     <path d="m414 245v20"/>
     <path d="m414 206v20"/>
     <path d="m414 168v20"/>
     <path d="m413 146v-20"/>
     <path d="m414 283v20"/>
     <path d="m462 283v20"/>
     <path d="m414 321v20"/>
     <path d="m462 320v20"/>
     <path d="m542 340v20"/>
     <path d="m541 302v20"/>
     <path d="m540 263v20"/>
     <path d="m540 225v20"/>
     <path d="m538 188v20"/>
     <path d="m538 146v20"/>
     <path d="m537 106v20"/>
     <path d="m511 87v20"/>
     <path d="m511 127v20"/>
     <path d="m511 167v20"/>
     <path d="m511 207v20"/>
     <path d="m513 245v20"/>
     <path d="m513 283v20"/>
     <path d="m515 321v20"/>
     <path d="m596 339v20"/>
     <path d="m593 301v20"/>
     <path d="m594 263v20"/>
     <path d="m595 226v20"/>
     <path d="m594 186v20"/>
     <path d="m590 147v20"/>
     <path d="m591 107v20"/>
     <path d="m565 88v20"/>
     <path d="m565 126v20"/>
     <path d="m564 168v20"/>
     <path d="m564 207v20"/>
     <path d="m566 244v20"/>
     <path d="m567 283v20"/>
     <path d="m567 321v20"/>
     <path d="m621 321v20"/>
     <path d="m620 282v20"/>
     <path d="m619 245v20"/>
     <path d="m620 207v20"/>
     <path d="m615 168v20"/>
     <path d="m613 128v20"/>
     <path d="m613 88v20"/>
     <path transform="translate(-124 -254)" d="m448 574v20"/>
     <path transform="translate(-124 -254)" d="m447 537v20"/>
     <path transform="translate(-124 -254)" d="m446 499v20"/>
     <path transform="translate(-124 -254)" d="m445 462v20"/>
     <path transform="translate(-124 -254)" d="m444 423v20"/>
     <path transform="translate(-124 -254)" d="m444 382v20"/>
    </g>
    <rect transform="translate(-.019 .00011)" x="11" y="63" width="359" height="49" fill="#9f6638" stroke="#6f3b1f" stroke-width=".98"/>
   </g>
  </g>
 </g>
 <g id="timeline">
  <g id="soil" transform="translate(0,-1.3)">
   <text id="moisture-adc" x="372.60001" y="864.59686" fill="#ffffff" font-size="32px">ADC</text>
   <path id="soil-line" d="m306 890-115-19" fill="none" stroke="#000" stroke-width="1.5"/>
   <text id="soil-text" x="87.040001" y="947.70001" fill="#5b4f35" font-size="32px">SOIL</text>
   <g id="soil-badge">
    <circle id="soil-type-color" cx="179" cy="872" r="130" fill="#5b4f35"/>
    <g id="soil-title">
     <text id="soil-type-text" transform="translate(144,793)" fill="#ffffff" font-size="29px">DIRT</text>
    </g>
    <g id="soil-details" font-size="24px">
     <text id="soil-type" transform="translate(130,944)" fill="#ffffff">Soil Type</text>
     <g id="soil-icon" transform="matrix(.6 0 0 .6 115 823)">
      <path d="m101 59-96 11 96 11 96-11z" fill="#3d2111"/>
      <path d="m101 60v13l96-11v-13z"/>
      <path d="m5 49v13l96 11v-13z" fill="#222020"/>
      <path d="m101 38-96 11 96 11 96-11z" fill="#0e0e0e"/>
      <path d="m101 48v5l96-11v-5z" fill="#007634"/>
      <path d="m5 37v5l96 11v-5z" fill="#3d9919"/>
      <path d="m101 26-96 11 96 11 96-11z" fill="#8dbf49"/>
      <path d="m5 70v50l96 11v-50z" fill="#58280c"/>
      <path d="m101 81v50l96-11v-50z" fill="#3d2111"/>
      <path d="m59 34s-6-4-12-1c0 0 5-8 10-7 0 0-3-5-8-5 0 0 7-4 13 2 0 0 2-6-4-11 0 0 6 0.9 9 7 0 0 2-9 10-14 0 0-6 8-5 14 0 0 7-11 19-9 0 0-6 5-9 11 0 0 8-4 16 1 0 0-4 0.3-8 2 0 0 3 0.6 7 3 0 0-7 0-12 7z" fill="#3d9919"/>
      <path d="m59 34s-6-4-12-1c0 0 5-8 10-7 0 0-3-5-8-5 0 0 7-4 13 2 0 0 2-6-4-11 0 0 6 0.9 9 7 0 0 2-9 10-14 0 0-6 8-5 14 0 0 7-11 19-9 0 0-6 5-9 11 0 0 8-4 16 1 0 0-4 0.3-8 2 0 0 3 0.6 7 3 0 0-7 0-12 7z" fill="#3d9919"/>
      <path d="m64 34s-6-6-13-4c0 0 9-5 16 2 0 0-4-8-11-11 0 0 7 0.9 13 9 0 0-2-8-6-13 0 0 4 2 5 6 0 0 2-11 5-15 0 0-5 9-2 16 0 0 6-14 18-14 0 0-11 10-12 18 0 0 11-9 18-7 0 0-7 0.1-11 5 0 0 6-2 10 0.4 0 0-6 1-8 6z" fill="#007634"/>
      <path d="m69 39s-4-4-9-3c2-3 7-2 7-2-3-3-5-3-5-3s4-0.9 6 2c-0.8-3-0.7-4-0.7-4s2 4 3 4c0.2 0-2 5-2 5z" fill="#237812"/>
      <path d="m80 32s4-4 6-4c2 0.1 6 3 6 5 0.3 2 0.4 4-1 5-2 0.5-6 1-8-0.1-2-1-2-6-2-6z" fill="#9c6038"/>
      <path d="m68 38s2-7 4-8 4-2 8 1c3 3 3 3 3 5 0.2 2 0.7 3-2 4-7 2-14-0.1-13-2z" fill="#b67d56"/>
      <path d="m83 36c-0.2-2 0.3-2-3-5-4-3-6-2-8-1-1 0.6-2 3-3 5 0.4-0.7 4-6 6-5 3 0.8 5 4 5 7 0.4 2-12 3-12 0.4-0.1 0.2-0.1 0.4-0.1 0.4-0.8 2 6 4 13 2 3-0.8 2-2 2-4z" fill="#b67d56"/>
      <path d="m125 33s-5-3-10-0.8c0 0 4-6 8-6 0 0-2-4-6-4 0 0 6-4 11 2 0 0 2-4-4-9 0 0 5 0.7 7 6 0 0 1-8 8-11 0 0-4 6-4 11 0 0 5-9 15-7 0 0-5 4-7 9 0 0 6-3 13 1 0 0-3 0.2-6 2 0 0 3 0.4 6 3 0 0-5 0-9 6z" fill="#3d9919"/>
      <path d="m125 33s-5-3-10-0.8c0 0 4-6 8-6 0 0-2-4-6-4 0 0 6-4 11 2 0 0 2-4-4-9 0 0 5 0.7 7 6 0 0 1-8 8-11 0 0-4 6-4 11 0 0 5-9 15-7 0 0-5 4-7 9 0 0 6-3 13 1 0 0-3 0.2-6 2 0 0 3 0.4 6 3 0 0-5 0-9 6z" fill="#3d9919"/>
      <path d="m129 33s-5-5-10-3c0 0 7-4 13 1 0 0-3-7-9-8 0 0 6 0.7 10 7 0 0-2-6-4-11 0 0 3 2 4 5 0 0 1-8 4-12 0 0-4 7-2 13 0 0 4-12 14-11 0 0-9 8-10 14 0 0 8-7 14-5 0 0-5 0.1-8 4 0 0 5-1 8 0.3 0 0-5 1-6 5z" fill="#007634"/>
      <path d="m133 37s-3-3-7-2c2-2 6-1 6-1-2-2-4-2-4-2s3-0.7 5 1c-0.6-2-0.6-3-0.6-3l2 4c0.2 0-2 4-2 4z" fill="#237812"/>
      <path d="m142 32s3-3 4-3c1 0.1 5 3 5 4 0.3 2 0.3 3-1 4-1 0.4-5 1-6-0.1-2-1-2-5-2-5z" fill="#9c6038"/>
      <path d="m151 33c-0.2-1-2-3-3-4 0.4 0.5 1 2 2 2 0.9 0.9 0.6 3-0.4 4-1 0.3-4 0.9-4 0-0.6-0.9-1-2-2-3-0.2-0.4 0-1 0.4-2l-2 2s0.3 4 2 5c2 1 5 0.4 6 0.1 1-0.4 1-2 1-4z" fill="#9c6038"/>
      <path d="m132 36s2-5 4-6c2-0.8 3-2 6 1 3 2 2 2 2 4 0.1 2 0.6 3-2 3-5 2-11-0.1-10-2z" fill="#b67d56"/>
      <path d="m144 35c-0.1-2 0.2-2-2-4-3-3-4-2-6-1-0.9 0.5-2 2-3 4 0.3-0.5 3-4 5-4 2 0.6 4 4 4 5s-9 2-10 0.3c-0.1 0.2-0.1 0.3-0.1 0.3-0.7 2 5 4 10 2 2-0.6 2-2 2-3z" fill="#b67d56"/>
     </g>
    </g>
   </g>
  </g>
  <g id="timer" transform="translate(107,5.7)">
   <g id="timer-disabled" transform="translate(-148)" fill="#eb2c00">
    <path transform="translate(-25,-1.4)" d="m99 375a52 52 0 0 0 3.2 5.2 126 126 0 0 0 16 19 139 139 0 0 0 16 14c1.2 2.3-5.5 7.5-6.7 5.2-4.9-5-10-9.6-15-14-6-5.9-12-12-17-18a42 42 0 0 0-4.5-4.2c-1.4-2.7 6.5-8.7 7.9-6z"/>
    <path transform="translate(-25,-1.4)" d="m126 374a50 50 0 0 1-3.2 5.3 126 126 0 0 1-16 19 136 136 0 0 1-16 13c-1.2 2.3 5.5 7.5 6.7 5.2 4.9-5 10-9.6 15-14 6-5.9 12-12 18-18a42 42 0 0 1 4.4-4.2c1.4-2.7-6.5-8.8-7.9-6.1z"/>
   </g>
   <g id="timer-enabled" transform="translate(-148)" fill="#5fd35f" fill-rule="evenodd">
    <path transform="translate(-25,-1.4)" d="m142 379a48 48 0 0 1-9.9-8.8c-12 7.4-26 34-26 34-6.2-8.9-12-11-12-11a115 115 0 0 1-7.6 8.8c11 3.1 21 14 21 14 20-32 35-37 35-37z"/>
    <path transform="translate(-25,-1.4)" d="m144 379a48 48 0 0 1-9.8-8.7c-12 7.4-26 34-26 34-6.1-8.8-12-11-12-11a115 115 0 0 1-7.6 8.9c11 3 21 14 21 14 20-32 35-37 35-37z" opacity=".27"/>
   </g>
   <path id="timer-line" d="m100 500-50 50" fill="none" stroke="#000" stroke-width="2px"/>
   <text x="-23.65" y="408.79999" fill="#33b5e5" font-size="32px">TIMER</text>
   <g id="timer-badge">
    <circle cx="240" cy="433" r="130" fill="#33b5e5"/>
    <g id="timer-title" transform="translate(23)">
     <text id="timer-text" transform="translate(215,360)" fill="#ffffff" font-size="29px">0</text>
    </g>
    <g id="timer-details">
     <g transform="translate(10)">
      <path transform="translate(-25,-1.4)" d="m257 380-12 49 12 49a49 49 0 0 0 0-98z" fill="#54bbff"/>
      <path transform="translate(-25,-1.4)" d="m208 429a49 49 0 0 0 49 49v-98a49 49 0 0 0-49 49z" fill="#8dd2ff"/>
      <path transform="translate(-25,-1.4)" d="m257 386v86a43 43 0 0 0 0-86z" fill="#c6e8ff"/>
      <path transform="translate(-25,-1.4)" d="m295 429c0-24-17-43-37-43a43 43 0 0 0 0 86c20 0 37-19 37-43z" fill="#fff"/>
      <path transform="translate(-25,-1.4)" d="m257 468a1.5 1.5 0 0 1-1.5-1.5v-37l-15-27a1.5 1.5 0 1 1 2.6-1.5l16 27v38a1.5 1.5 0 0 1-1.5 1.5z" fill="#0c4870"/>
      <g fill="#54bbff">
       <circle cx="232" cy="391" r="1.5"/>
       <circle cx="213" cy="396" r="1.5"/>
       <circle cx="200" cy="409" r="1.5"/>
       <circle cx="195" cy="428" r="1.5"/>
       <circle cx="200" cy="446" r="1.5"/>
       <circle cx="213" cy="460" r="1.5"/>
       <circle cx="251" cy="460" r="1.5"/>
       <circle cx="264" cy="446" r="1.5"/>
       <circle cx="269" cy="428" r="1.5"/>
       <circle cx="264" cy="409" r="1.5"/>
       <circle cx="251" cy="396" r="1.5"/>
      </g>
      <circle cx="232" cy="428" r=".57" fill="#0789de"/>
     </g>
     <text x="202.3" y="513.09998" fill="#c2e9f7" font-size="24px">Hours</text>
    </g>
   </g>
  </g>
  <g id="moisture" transform="translate(44,157)">
   <path d="m244 615-125-111" fill="none" stroke="#000" stroke-width="1.5"/>
   <text x="-26.271158" y="345.60001" fill="#33b5e5" font-size="31px" stroke-width=".9">MOISTURE</text>
   <path transform="translate(-25,-1.4)" d="m63 600h187v68h-187z" fill="none"/>
   <g id="moisture-badge">
    <circle cx="130" cy="490" r="130" fill="#33b5e5"/>
    <g id="moisture-title">
     <text id="moisture-text" transform="translate(90,440)" fill="#ffffff" font-size="29px">0</text>
    </g>
    <g id="moisture-details" font-size="24px">
     <g id="moisture-icon" transform="translate(-28,-25)">
      <path d="m192 539c0 17-15 31-33 31s-33-14-33-31c0-22 33-53 33-53s33 31 33 53z" fill="#87d2f3"/>
      <g fill="#2170a6">
       <path d="m158 572c-20 0-35-15-35-33 0-22 33-53 34-54a2 2 0 0 1 2.7 0c1.4 1.3 34 32 34 54 0 18-16 33-35 33zm0-84c-6.2 6.1-31 32-31 50 0 16 14 29 31 29s32-13 32-29c0-18-25-44-32-50z"/>
       <path d="m158 561c-13 0-24-9.9-24-22h3.9c0 10 8.8 18 20 18z"/>
      </g>
     </g>
     <text transform="translate(95,580)" fill="#c2e9f7">Sensor</text>
    </g>
   </g>
  </g>
  <g id="pot-size" transform="translate(-30 .5)">
   <path d="m719 864 106 34" fill="none" stroke="#000" stroke-width="1.5"/>
   <g id="pot-size-badge">
    <circle cx="840" cy="888" r="130" fill="#d9b48f"/>
    <g id="pot-size-title">
     <text id="pot-size-text" transform="translate(836,808)" fill="#ffffff" font-size="29px">2</text>
    </g>
    <g id="pot-size-details" font-size="24px">
     <g id="water-icon">
      <path transform="translate(-25,-1.4)" d="m902 885v26a8.8 8.8 0 0 1-8.6 9h-40a8.8 8.8 0 0 1-8.5-9v-26l6-1.6a8.4 8.4 0 0 1 5 0.2l3.5 1.3a8.6 8.6 0 0 0 5 0.2l6.6-1.8a8.3 8.3 0 0 1 4.4 0l6.6 1.8a8.6 8.6 0 0 0 5-0.2l3.5-1.3a8.4 8.4 0 0 1 5-0.2z" fill="#76aadb"/>
      <path transform="translate(-25,-1.4)" d="m902 844a1.5 1.5 0 0 0-1.4 1.5v38l-4.2-1.1a9.9 9.9 0 0 0-5.8 0.2l-3.6 1.3a7.2 7.2 0 0 1-4.2 0.2l-6.6-1.8a9.9 9.9 0 0 0-5 0l-6.6 1.8a7.2 7.2 0 0 1-4.3-0.2l-3.5-1.3a9.9 9.9 0 0 0-5.8-0.2l-4.2 1.1v-7.7h4.2a1.5 1.5 0 0 0 0-3h-4.2v-3h7.1a1.5 1.5 0 0 0 0-3h-7.1v-3h4.3a1.5 1.5 0 0 0 0-3h-4.3v-3h7.1a1.5 1.5 0 0 0 0-3h-7.1v-3h4.3a1.5 1.5 0 0 0 0-3h-4.3v-3a1.4 1.4 0 1 0-2.8 0v66a11 11 0 0 0 0.1 1.8 1 1 0 0 0 0 0.1 10 10 0 0 0 9.8 8.7h40c5.5 0 10-4.8 10-11v-66a1.5 1.5 0 0 0-1.5-1.5zm-1.4 67a7.4 7.4 0 0 1-7.1 7.6h-40a7.2 7.2 0 0 1-6.5-4.5h6.5a1.5 1.5 0 0 0 0-3h-7.1v-25l4.9-1.3a7.2 7.2 0 0 1 4.2 0.1l3.5 1.3a9.9 9.9 0 0 0 5.9 0.2l6.6-1.7a7.2 7.2 0 0 1 3.6 0l6.6 1.7a9.9 9.9 0 0 0 5.8-0.2l3.6-1.3a7.2 7.2 0 0 1 4.2-0.1l4.9 1.3z"/>
      <path transform="translate(-25,-1.4)" d="m860 912a2.1 2.1 0 0 0-0.1-0.3 1 1 0 0 0-0.2-0.2 1.4 1.4 0 0 0-0.2-0.2l-0.2-0.1-0.3-0.1a1.4 1.4 0 0 0-1.3 0.4 1 1 0 0 0-0.1 0.2 0.91 0.91 0 0 0-0.2 0.3l-0.1 0.3a1.4 1.4 0 0 0 0 0.6l0.1 0.3a0.75 0.75 0 0 0 0.2 0.2l0.1 0.2 0.2 0.2a1 1 0 0 0 0.3 0.2 0.62 0.62 0 0 0 0.3 0h0.2a1.3 1.3 0 0 0 0.3 0 0.78 0.78 0 0 0 0.3 0 0.8 0.8 0 0 0 0.2-0.2 2 2 0 0 0 0.2-0.2 1.6 1.6 0 0 0 0.4-1 1 1 0 0 0 0-0.3 1.4 1.4 0 0 0-0.1-0.3z"/>
     </g>
     <text transform="translate(762,960)" fill="#fcebda">Water Quantity</text>
    </g>
   </g>
   <text x="858" y="998" fill="#d9b48f" font-size="32px">SIZE</text>
  </g>
  <g id="graph" transform="translate(-18,10)">
   <g id="graph-badge">
    <circle cx="788" cy="130" r="130" fill="#ffc30f"/>
    <g id="graph-title">
     <text transform="translate(738,54)" fill="#ffffff" font-size="29px">GRAPH</text>
    </g>
    <g id="graph-details" font-size="24px">
     <g id="graph-icon">
      <path transform="translate(-25,-1.4)" d="m861 162h-86v-89a2.1 2.1 0 1 0-4.2 0v89h-6.3a2.2 2.2 0 0 0 0 4.3h6.3v6.5a2.1 2.1 0 1 0 4.2 0v-6.5h86a2.2 2.2 0 0 0 0-4.3z" fill="#455a64"/>
      <path transform="translate(-25,-1.4)" d="m781 157a2.1 2.1 0 0 1-2.1-2.2 2.3 2.3 0 0 1 0.5-1.3l17-22a2 2 0 0 1 1.6-0.9 2 2 0 0 1 1.6 0.7l6.5 6.7 11-19a2 2 0 0 1 1.7-1.1 2.1 2.1 0 0 1 1.8 0.8l5.6 7.3 7.5-37a2.1 2.1 0 0 1 3.5-1.1l11 11 11-15a2 2 0 0 1 3-0.44 2.2 2.2 0 0 1 0.4 3l-13 17a2.1 2.1 0 0 1-3 0.4l-0.2-0.2-9.8-10-7.6 37a2.1 2.1 0 0 1-2.5 1.7 2.2 2.2 0 0 1-1.2-0.7l-6.5-8.5-11 19a2.1 2.1 0 0 1-2.9 0.7 4.2 4.2 0 0 1-0.4-0.3l-6.7-6.9-16 20a2.1 2.1 0 0 1-1.6 0.8z" fill="#2196f3"/>
     </g>
     <text transform="translate(720,210)" fill="#fcefca">Performance</text>
    </g>
   </g>
   <path transform="translate(-25,-1.4)" d="m719 178h187v68h-187z" fill="none"/>
  </g>
  <g id="wireless" transform="translate(-50,93)">
   <g id="wireless-badge">
    <circle cx="830" cy="227" r="130" fill="#a8d92e"/>
    <g id="wireless-title">
     <text transform="translate(804,148)" fill="#ffffff" font-size="29px">WiFi</text>
    </g>
    <g id="wireless-details" font-size="24px">
     <g id="wireless-icon">
      <path transform="translate(-25,-1.4)" d="m856 240c-4.5 0-8.1 3.9-8.1 8.7s3.6 8.7 8.1 8.7 8.1-3.9 8.1-8.7-3.6-8.7-8.1-8.7z"/>
      <path transform="translate(-25,-1.4)" d="m856 170a68 68 0 0 0-45 17 3.1 3.1 0 0 0-0.4 4.1l3.7 5.1a2.6 2.6 0 0 0 3.8 0.4 59 59 0 0 1 77-1.4 2.6 2.6 0 0 0 3.7-0.5l2.7-3.6a3.1 3.1 0 0 0-0.4-4.1 68 68 0 0 0-45-17z"/>
      <path transform="translate(-25,-1.4)" d="m856 194a48 48 0 0 0-32 12 3 3 0 0 0-0.3 4l3.7 5.1a2.6 2.6 0 0 0 3.8 0.4 39 39 0 0 1 51-1.3 2.6 2.6 0 0 0 3.7-0.5l2.6-3.7a3.1 3.1 0 0 0-0.4-4 48 48 0 0 0-32-12z"/>
      <path transform="translate(-25,-1.4)" d="m838 224a3 3 0 0 0-0.4 4l3.8 5a2.5 2.5 0 0 0 3.7 0.5 19 19 0 0 1 13-4.9 19 19 0 0 1 11 3.8 2.5 2.5 0 0 0 3.5-0.7l2.7-3.7a3 3 0 0 0-0.3-4 29 29 0 0 0-37 0z"/>
     </g>
     <text transform="translate(785,292)" fill="#ebf4ce">Setttings</text>
    </g>
   </g>
  </g>
  <g id="power" transform="translate(-7.5,36)">
   <text x="815.03125" y="597.71252" fill="#cf6434" font-size="32px">POWER</text>
   <g id="power-badge">
    <circle cx="838" cy="495" r="130" fill="#fb6605"/>
    <g id="power-title">
     <text id="power-text" transform="translate(823,418)" fill="#ffffff" font-size="29px">0</text>
    </g>
    <g id="power-details" font-size="24px">
     <g id="power-icon">
      <g fill-rule="evenodd">
       <path transform="translate(-25,-1.4)" d="m817 448v66a3.6 3.6 0 0 0 3.7 3.5h41a3.6 3.6 0 0 0 3.6-3.5v-66a3.6 3.6 0 0 0-3.6-3.5h-41a3.6 3.6 0 0 0-3.7 3.5zm8.7 61v-56h31v56z" fill="#fff"/>
       <path transform="translate(-25,-1.4)" d="m832 435a4.5 4.5 0 0 0-4.6 4.5v4.4h29v-4.4a4.5 4.5 0 0 0-4.6-4.5z" fill="#a6afc6"/>
       <path transform="translate(-25,-1.4)" d="m885 451v7.8a1.3 1.3 0 0 0 1.4 1.3h25a1.3 1.3 0 0 0 1.4-1.3v-7.8a1.3 1.3 0 0 0-1.4-1.3h-25a1.3 1.3 0 0 0-1.4 1.3z" fill="#a8d92e"/>
       <path transform="translate(-25,-1.4)" d="m888 460v8.5a8.7 8.7 0 0 0 8.8 8.5h3.5a8.7 8.7 0 0 0 8.8-8.5v-8.5z" fill="#a6afc6"/>
      </g>
      <g fill="#a8d92e" fill-rule="evenodd">
       <path transform="translate(-25,-1.4)" d="m898 489a16 16 0 1 0 16 16 16 16 0 0 0-16-16z"/>
       <path transform="translate(-25,-1.4)" d="m826 453h31v15h-31z"/>
       <path transform="translate(-25,-1.4)" d="m826 467h31v14h-31z"/>
       <path transform="translate(-25,-1.4)" d="m826 482h31v13h-31z"/>
       <path transform="translate(-25,-1.4)" d="m826 495h31v14h-31z"/>
      </g>
      <path transform="translate(-25,-1.4)" d="m901 487v-7.8a11 11 0 0 0 11-10v-6.5a3.3 3.3 0 0 0 3.3-3.3v-7.8a3.4 3.4 0 0 0-3.4-3.3h-3.2v-13a2.1 2.1 0 0 0-4.1 0v13h-10v-13a2.1 2.1 0 0 0-4.2 0v13h-3.1a3.4 3.4 0 0 0-3.4 3.3v7.8a3.4 3.4 0 0 0 3.4 3.3v6.5a11 11 0 0 0 10 10v7.8a18 18 0 0 0 0 36v1.6a7.9 7.9 0 0 1-8 7.7h-37a7.9 7.9 0 0 1-7.9-7.7v-5.7h18a5.6 5.6 0 0 0 5.7-5.5v-24a2.1 2.1 0 0 0-4.2 0v24a1.5 1.5 0 0 1-1.5 1.4h-41a1.5 1.5 0 0 1-1.5-1.4v-66a1.6 1.6 0 0 1 1.5-1.5h41a1.5 1.5 0 0 1 1.5 1.5v24a2.1 2.1 0 0 0 4.2 0v-24a5.6 5.6 0 0 0-5.7-5.5h-3.9v-2.4a6.6 6.6 0 0 0-6.7-6.5h-20a6.6 6.6 0 0 0-6.6 6.5v2.4h-3.9a5.6 5.6 0 0 0-5.7 5.5v66a5.6 5.6 0 0 0 5.7 5.5h18v5.7a12 12 0 0 0 12 12h37a12 12 0 0 0 12-12v-1.6a18 18 0 0 0 0-36zm-72-48a2.5 2.5 0 0 1 2.5-2.5h20a2.5 2.5 0 0 1 2.5 2.5v2.4h-25zm58 12h24v6.4h-24zm3.4 17v-6.5h17v6.5a6.6 6.6 0 0 1-6.8 6.5h-3.5a6.6 6.6 0 0 1-6.7-6.5zm8.5 50a14 14 0 1 1 14-14 14 14 0 0 1-14 14z"/>
      <path transform="translate(-25,-1.4)" d="m902 503h-3.5l2.7-5.4a2 2 0 0 0-0.9-2.7 2.1 2.1 0 0 0-2.8 0.9l-4.2 8.3a2 2 0 0 0 1.9 2.9h3.4l-2.7 5.4a2 2 0 0 0 0.9 2.7 2.2 2.2 0 0 0 0.9 0.2 2.1 2.1 0 0 0 1.9-1.1l4.2-8.3a1.2 1.2 0 0 0 0.1-0.2 2 2 0 0 0-1.9-2.7z"/>
      <path transform="translate(-25,-1.4)" d="m826 451a2 2 0 0 0-2.1 2v56a2 2 0 0 0 2.1 2h31a2.1 2.1 0 0 0 2.1-2v-56a2 2 0 0 0-2.1-2zm29 56h-27v-9.6h27zm0-14h-27v-9h27zm0-13h-27v-10h27zm0-14h-27v-11h27z"/>
      <path transform="translate(-25,-1.4)" d="m866 478a2 2 0 0 0-2.1 2 2.1 2.1 0 1 0 2.1-2z"/>
     </g>
     <rect x="745" y="540" width="187" height="68" fill="none"/>
     <text transform="translate(811,559)" fill="#ebf4ce">Sleep</text>
     <text transform="translate(798,589)" fill="#ebf4ce">Minutes</text>
    </g>
   </g>
  </g>
 </g>
</svg>
