<?xml version="1.0" encoding="UTF-8"?>
<svg id="Certificate" width="528" height="520" version="1.1" viewBox="0 0 412 413" xml:space="preserve" xmlns="http://www.w3.org/2000/svg"><g fill="#64b432"><path d="m229 168 16.4-0.0876c10.4-10.9 22.9-23.8 39.3-22.8 16.4-0.884 28.9 11.8 39.3 22.8 6.95 0.267 20.4-0.765 26.9 1.66v-104h-289v166h120l8.14-8.23 0.175-16.4a39.5 39.5 0 0 1 39-39.1zm-110-36.5c-17.2-0.258-17.3-26 0-26.2h175c17.2 0.304 17.3 25.9 0 26.2z"/><path d="m403 5.23e-5h-394a13.1 13.1 0 0 0-13.1 13v271a13.2 13.2 0 0 0 13.1 13.1h176c-11.6-10.3-20.2-23.8-17.8-39.4h-118a13.2 13.2 0 0 1-13.1-13.1v-192a13.1 13.1 0 0 1 13.1-13.1h315a13.2 13.2 0 0 1 13.1 13.1v142c3.33 7.41 2.22 21.2 2.45 29.3l11.6 11.6c18.5 19.5 12.9 46.1-6.91 62.2h19.2a13.2 13.2 0 0 0 13.1-13.1v-271a13.1 13.1 0 0 0-13.1-13z"/><path d="m360 358-36.2 0.263-16.7 16.4 13 35.8a4.37 4.37 0 0 0 8.07 0.357l12.2-26 25.9 12.1a4.37 4.37 0 0 0 5.96-5.46z"/><path d="m209 358-12.2 33.5a4.37 4.37 0 0 0 5.96 5.46l25.9-12.1 12.2 26.1a4.37 4.37 0 0 0 8.07-0.355l13-35.8-16.8-16.5z"/><path d="m353 234-0.196-27a13.1 13.1 0 0 0-13-13l-27-0.196-19.2-19a13.1 13.1 0 0 0-18.4 0l-19.2 19-27 0.196a13.1 13.1 0 0 0-13 13l-0.199 27-19 19.2a13.1 13.1 0 0 0 0 18.4l19 19.2 0.197 27a13.1 13.1 0 0 0 13 13l27 0.197 19.2 19a13.1 13.1 0 0 0 18.4 0l19.2-19 27-0.197a13.1 13.1 0 0 0 13-13l0.198-27 19-19.2a13.1 13.1 0 0 0 0-18.4zm-68.7 63.4c-46.3-1.43-46.3-68.6 0-70 46.3 1.43 46.3 68.6-1e-4 70z"/>
</g></svg>
